<svg width="504" height="287" viewBox="0 0 504 287" fill="none" xmlns="http://www.w3.org/2000/svg">
<path fill-rule="evenodd" clip-rule="evenodd" d="M300.122 19.1859C194.252 10.7183 186.368 62.2863 172.375 91.6824C167.126 102.646 158.084 110.868 148.755 116.84C136.801 124.564 122.499 129.301 107.635 130.789C11.9539 141.753 27.4137 252.122 63.5822 261.334H445.37C539.585 108.373 406.003 27.4085 300.122 19.1859Z" fill="#EADFFF"/>
<path fill-rule="evenodd" clip-rule="evenodd" d="M420.879 264.075C508.962 236.421 474.25 111.604 474.25 111.604C382.373 160.685 395.506 260.835 395.506 260.835L420.879 264.075Z" fill="#684EB9"/>
<path fill-rule="evenodd" clip-rule="evenodd" d="M415.917 245.397C413.579 251.124 411.252 256.86 409.212 262.586C404.834 262.087 400.457 261.343 395.792 260.844C395.792 260.844 386.463 191.832 436.041 140.51C446.836 129.301 459.958 119.581 474.536 111.858C474.547 111.613 440.418 184.354 415.917 245.397Z" fill="#A58BFF"/>
<path fill-rule="evenodd" clip-rule="evenodd" d="M436.923 262.332C446.836 228.698 459.385 220.23 480.38 214.249C491.462 252.367 450.927 266.071 450.927 266.071L436.923 262.332Z" fill="#CBEAFF"/>
<path fill-rule="evenodd" clip-rule="evenodd" d="M469.001 255.108C460.543 262.831 450.916 266.071 450.916 266.071C448.876 265.572 446.836 265.073 445.083 264.574C456.75 247.884 468.703 231.194 480.37 214.249C485.916 233.935 478.043 247.14 469.001 255.108Z" fill="#D4D7FF"/>
<path fill-rule="evenodd" clip-rule="evenodd" d="M92.4615 264.075C4.37786 236.421 39.0907 111.604 39.0907 111.604C130.957 160.685 117.835 260.835 117.835 260.835L92.4615 264.075Z" fill="#684EB9"/>
<path fill-rule="evenodd" clip-rule="evenodd" d="M97.7105 245.397C100.048 251.124 102.375 256.86 104.415 262.586C108.793 262.087 113.17 261.343 117.835 260.844C117.835 260.844 127.164 191.832 77.5863 140.51C66.791 129.301 53.6687 119.581 39.0908 111.858C39.0802 111.613 73.2086 184.354 97.7105 245.397Z" fill="#A58BFF"/>
<path fill-rule="evenodd" clip-rule="evenodd" d="M76.4174 262.332C66.504 228.698 53.9555 219.976 32.96 214.249C21.8778 252.367 62.4133 266.071 62.4133 266.071L76.4174 262.332Z" fill="#A991FF"/>
<path fill-rule="evenodd" clip-rule="evenodd" d="M44.6265 255.108C53.0842 262.831 62.4132 266.071 62.4132 266.071C64.4533 265.572 66.4933 265.073 68.2465 264.574C56.5799 247.884 44.6265 231.194 32.9599 214.249C27.4135 233.935 35.2869 247.14 44.6265 255.108Z" fill="#D4D7FF"/>
<path fill-rule="evenodd" clip-rule="evenodd" d="M116.964 43.5995C61.8395 43.8445 46.9641 90.1849 77.0018 116.096C118.419 152.217 232.163 43.1003 116.964 43.5995Z" fill="#E4F1F8"/>
<path fill-rule="evenodd" clip-rule="evenodd" d="M226.627 49.5804C226.043 49.5804 225.458 50.0795 225.458 50.5787C225.458 51.0779 226.043 51.577 226.627 51.577C227.212 51.577 227.796 51.0779 227.796 50.5787C227.796 50.0795 227.212 49.5804 226.627 49.5804ZM226.627 52.0671C225.756 52.0671 224.874 51.3229 224.874 50.5696C224.874 49.8163 225.745 49.0721 226.627 49.0721C227.509 49.0721 228.38 49.8163 228.38 50.5696C228.083 51.568 227.498 52.0671 226.627 52.0671Z" fill="#B9D7E8"/>
<path fill-rule="evenodd" clip-rule="evenodd" d="M226.627 49.5803C226.329 49.5803 226.329 49.5803 226.627 49.5803L226.34 47.8378C226.34 47.8378 226.34 47.5928 226.627 47.5928C226.627 47.5928 226.914 47.5928 226.914 47.8378L226.627 49.5803Z" fill="#B9D7E8"/>
<path d="M369.834 47.8289H162.163V61.7782H369.834V47.8289Z" fill="#684EB9"/>
<path fill-rule="evenodd" clip-rule="evenodd" d="M193.954 54.808C193.954 56.0513 192.785 57.0497 191.33 57.0497C189.874 57.0497 188.705 56.0513 188.705 54.808C188.705 53.5646 189.874 52.5663 191.33 52.5663C192.796 52.5663 193.954 53.5646 193.954 54.808Z" fill="white"/>
<path fill-rule="evenodd" clip-rule="evenodd" d="M183.17 54.808C183.17 56.0513 182.001 57.0497 180.545 57.0497C179.09 57.0497 177.921 56.0513 177.921 54.808C177.921 53.5646 179.09 52.5663 180.545 52.5663C182.001 52.5663 183.17 53.5646 183.17 54.808Z" fill="white"/>
<path fill-rule="evenodd" clip-rule="evenodd" d="M172.374 54.808C172.374 56.0513 171.205 57.0497 169.749 57.0497C168.294 57.0497 167.125 56.0513 167.125 54.808C167.125 53.5646 168.294 52.5663 169.749 52.5663C171.205 52.5663 172.374 53.5646 172.374 54.808Z" fill="#AB90FF"/>
<path d="M369.537 61.7872H162.163V179.127H369.537V61.7872Z" fill="#CBEAFF"/>
<path fill-rule="evenodd" clip-rule="evenodd" d="M218.169 180.37H129.799C125.719 180.37 122.51 177.629 122.51 174.144V110.868C122.51 107.383 125.719 104.642 129.799 104.642H218.169C222.249 104.642 225.458 107.383 225.458 110.868V174.144C225.458 177.629 222.249 180.37 218.169 180.37Z" fill="#D6C5FA"/>
<path fill-rule="evenodd" clip-rule="evenodd" d="M131.541 127.059H129.788C129.501 127.059 129.203 126.814 129.203 126.56V110.614C129.203 110.369 129.49 110.115 129.788 110.115H131.541C131.828 110.115 132.125 110.36 132.125 110.614V126.56C132.412 126.805 132.125 127.059 131.541 127.059Z" fill="#684EB9"/>
<path fill-rule="evenodd" clip-rule="evenodd" d="M137.959 127.059H136.205C135.919 127.059 135.621 126.814 135.621 126.56V121.079C135.621 120.833 135.908 120.579 136.205 120.579H137.959C138.246 120.579 138.543 120.824 138.543 121.079V126.56C138.543 126.805 138.246 127.059 137.959 127.059Z" fill="#684EB9"/>
<path fill-rule="evenodd" clip-rule="evenodd" d="M144.079 127.059H142.326C142.039 127.059 141.741 126.814 141.741 126.56V115.851C141.741 115.606 142.028 115.352 142.326 115.352H144.079C144.366 115.352 144.663 115.597 144.663 115.851V126.56C144.961 126.805 144.663 127.059 144.079 127.059Z" fill="#684EB9"/>
<path fill-rule="evenodd" clip-rule="evenodd" d="M209.414 166.166H144.95C144.366 166.166 143.781 165.667 143.781 165.168V162.926C143.781 162.427 144.366 161.928 144.95 161.928H209.414C209.998 161.928 210.582 162.427 210.582 162.926V165.168C210.296 165.921 209.998 166.166 209.414 166.166Z" fill="#684EB9"/>
<path fill-rule="evenodd" clip-rule="evenodd" d="M139.127 173.645H136.503C135.918 173.645 135.334 173.146 135.334 172.647V170.405C135.334 169.906 135.918 169.406 136.503 169.406H139.127C139.712 169.406 140.296 169.906 140.296 170.405V172.647C139.998 173.146 139.712 173.645 139.127 173.645Z" fill="#848CD2"/>
<path fill-rule="evenodd" clip-rule="evenodd" d="M209.414 173.645H144.95C144.366 173.645 143.781 173.146 143.781 172.647V170.405C143.781 169.906 144.366 169.406 144.95 169.406H209.414C209.998 169.406 210.582 169.906 210.582 170.405V172.647C210.296 173.146 209.998 173.645 209.414 173.645Z" fill="#684EB9"/>
<path fill-rule="evenodd" clip-rule="evenodd" d="M355.544 140.755H241.205C238.867 140.755 236.827 139.012 236.827 137.015V70.9989C236.827 69.0023 238.867 67.2598 241.205 67.2598H355.544C357.881 67.2598 359.921 69.0023 359.921 70.9989V137.015C359.921 139.012 357.881 140.755 355.544 140.755Z" fill="#684EB9"/>
<path fill-rule="evenodd" clip-rule="evenodd" d="M242.958 194.319H248.504L264.251 257.35H258.705L242.958 194.319Z" fill="#587690"/>
<path fill-rule="evenodd" clip-rule="evenodd" d="M290.793 246.641L289.922 251.378C291.091 253.874 290.507 257.359 290.507 257.359L267.758 257.604C270.095 253.62 280.88 253.366 282.049 251.378C283.218 249.39 283.504 243.9 283.504 243.9L290.793 246.641Z" fill="#D9E9FF"/>
<path fill-rule="evenodd" clip-rule="evenodd" d="M285.545 251.623C285.545 250.879 284.96 248.383 282.92 247.884C282.633 249.127 282.336 250.625 282.049 251.369C280.88 253.365 270.382 253.611 267.758 257.595L290.507 257.35C290.507 257.35 291.091 254.11 289.922 251.369C289.625 251.369 285.545 252.866 285.545 251.623Z" fill="#2B1710"/>
<path fill-rule="evenodd" clip-rule="evenodd" d="M268.331 256.606C268.045 256.851 267.747 257.105 267.747 257.35L290.496 257.105C290.496 257.105 290.496 256.86 290.496 256.36L268.331 256.606Z" fill="#693E2F"/>
<path fill-rule="evenodd" clip-rule="evenodd" d="M283.504 252.122C283.504 252.122 282.919 251.378 282.335 251.124C282.048 251.124 281.751 251.124 281.464 251.124C281.464 251.124 281.464 251.124 281.177 251.124C281.177 251.124 281.177 251.124 281.177 250.879C281.464 250.634 282.048 250.634 282.346 250.879C283.206 251.124 283.791 251.868 283.504 252.122C283.791 252.122 283.791 252.122 283.504 252.122Z" fill="#693E2F"/>
<path fill-rule="evenodd" clip-rule="evenodd" d="M281.464 253.365C281.464 253.365 280.879 252.621 280.295 252.367C280.008 252.367 279.71 252.367 279.424 252.367C279.424 252.367 279.424 252.367 279.137 252.367C279.137 252.367 279.137 252.367 279.137 252.122C279.424 251.877 280.008 251.877 280.306 252.122C281.166 252.367 281.464 253.365 281.464 253.365Z" fill="#693E2F"/>
<path fill-rule="evenodd" clip-rule="evenodd" d="M277.958 254.364C277.958 254.364 277.373 253.62 276.789 253.366C276.502 253.366 276.205 253.366 275.918 253.366C275.918 253.366 275.918 253.366 275.631 253.366C275.631 253.366 275.631 253.366 275.631 253.121C275.918 252.876 276.502 252.876 276.8 253.121C277.671 253.366 277.958 254.11 277.958 254.364Z" fill="#693E2F"/>
<path fill-rule="evenodd" clip-rule="evenodd" d="M268.332 246.641L267.46 251.378C268.629 253.874 268.045 257.359 268.045 257.359L245.296 257.604C247.633 253.62 258.418 253.366 259.587 251.378C260.756 249.39 261.043 243.9 261.043 243.9L268.332 246.641Z" fill="#D9E9FF"/>
<path fill-rule="evenodd" clip-rule="evenodd" d="M263.38 251.623C263.38 250.879 262.796 248.383 260.756 247.884C260.469 249.127 260.171 250.625 259.587 251.369C258.418 253.365 247.92 253.611 245.296 257.595L268.045 257.35C268.045 257.35 268.629 254.11 267.46 251.369C267.46 251.369 263.38 252.866 263.38 251.623Z" fill="#2B1710"/>
<path fill-rule="evenodd" clip-rule="evenodd" d="M246.166 256.606C245.88 256.851 245.582 257.105 245.582 257.35L268.331 257.105C268.331 257.105 268.331 256.86 268.331 256.36L246.166 256.606Z" fill="#693E2F"/>
<path fill-rule="evenodd" clip-rule="evenodd" d="M261.329 252.122C261.329 252.122 260.744 251.378 260.16 251.124C259.873 251.124 259.576 251.124 259.289 251.124C259.289 251.124 259.289 251.124 259.002 251.124C259.002 251.124 259.002 251.124 259.002 250.879C259.289 250.634 259.873 250.634 260.171 250.879C261.042 251.124 261.626 251.868 261.329 252.122C261.626 252.122 261.626 252.122 261.329 252.122Z" fill="#693E2F"/>
<path fill-rule="evenodd" clip-rule="evenodd" d="M259.289 253.365C259.289 253.365 258.704 252.621 258.12 252.367C257.833 252.367 257.536 252.367 257.249 252.367C257.249 252.367 257.249 252.367 256.962 252.367C256.962 252.367 256.962 252.367 256.962 252.122C257.249 251.877 257.833 251.877 258.131 252.122C259.002 252.367 259.289 253.365 259.289 253.365Z" fill="#693E2F"/>
<path fill-rule="evenodd" clip-rule="evenodd" d="M255.793 254.364C255.793 254.364 255.208 253.62 254.624 253.366C254.337 253.366 254.04 253.366 253.753 253.366C253.753 253.366 253.753 253.366 253.466 253.366C253.466 253.366 253.466 253.366 253.466 253.121C253.753 252.876 254.337 252.876 254.635 253.121C255.495 253.366 255.793 254.11 255.793 254.364Z" fill="#693E2F"/>
<path d="M95.9569 215.248H90.708V251.623H95.9569V215.248Z" fill="#587690"/>
<path d="M108.208 247.639H78.457V251.623H108.208V247.639Z" fill="#587690"/>
<path fill-rule="evenodd" clip-rule="evenodd" d="M104.712 215.248H66.5039V164.179C66.5039 156.456 73.7929 150.23 82.835 150.23H88.3814C97.4235 150.23 104.712 156.456 104.712 164.179V215.248Z" fill="#495C7A"/>
<path fill-rule="evenodd" clip-rule="evenodd" d="M107.336 215.248H69.1279V164.179C69.1279 156.456 76.4169 150.23 85.459 150.23H91.0054C100.048 150.23 107.336 156.456 107.336 164.179V215.248Z" fill="#627594"/>
<path d="M108.505 215.248H78.1699V220.729H108.505V215.248Z" fill="#6586A5"/>
<path fill-rule="evenodd" clip-rule="evenodd" d="M84.0031 253.121C84.0031 255.616 81.6656 257.359 79.0411 257.359C76.1192 257.359 74.0791 255.362 74.0791 253.121C74.0791 250.625 76.4167 248.882 79.0411 248.882C81.9631 248.882 84.0031 250.625 84.0031 253.121Z" fill="#587690"/>
<path fill-rule="evenodd" clip-rule="evenodd" d="M81.6659 253.12C81.6659 254.364 80.4971 255.362 79.0414 255.362C77.5858 255.362 76.417 254.364 76.417 253.12C76.417 251.877 77.5858 250.879 79.0414 250.879C80.4971 250.879 81.6659 251.868 81.6659 253.12Z" fill="#496278"/>
<path fill-rule="evenodd" clip-rule="evenodd" d="M81.666 246.141H76.4171C74.9614 246.141 73.4951 247.14 73.4951 248.637V251.133H84.5773V248.637C84.5879 247.385 83.1216 246.141 81.666 246.141Z" fill="#6586A5"/>
<path fill-rule="evenodd" clip-rule="evenodd" d="M98.5812 253.121C98.5812 255.616 96.2437 257.359 93.6192 257.359C90.6973 257.359 88.6572 255.362 88.6572 253.121C88.6572 250.625 90.9948 248.882 93.6192 248.882C96.2437 248.882 98.5812 250.625 98.5812 253.121Z" fill="#587690"/>
<path fill-rule="evenodd" clip-rule="evenodd" d="M96.2548 253.12C96.2548 254.364 95.086 255.362 93.6303 255.362C92.1746 255.362 91.0059 254.364 91.0059 253.12C91.0059 251.877 92.1746 250.879 93.6303 250.879C95.086 250.879 96.2548 251.868 96.2548 253.12Z" fill="#496278"/>
<path fill-rule="evenodd" clip-rule="evenodd" d="M96.2548 246.141H91.0059C89.5503 246.141 88.084 247.14 88.084 248.637V251.133H99.1662V248.637C99.1662 247.385 97.7105 246.141 96.2548 246.141Z" fill="#6586A5"/>
<path fill-rule="evenodd" clip-rule="evenodd" d="M113.17 253.121C113.17 255.616 110.833 257.359 108.208 257.359C105.286 257.359 103.246 255.362 103.246 253.121C103.246 250.625 105.584 248.882 108.208 248.882C110.833 248.882 113.17 250.625 113.17 253.121Z" fill="#587690"/>
<path fill-rule="evenodd" clip-rule="evenodd" d="M110.546 253.121C110.546 254.364 109.377 255.362 107.921 255.362C106.466 255.362 105.297 254.364 105.297 253.121C105.297 251.877 106.466 250.879 107.921 250.879C109.377 250.87 110.546 251.868 110.546 253.121Z" fill="#496278"/>
<path fill-rule="evenodd" clip-rule="evenodd" d="M110.832 246.141H105.583C104.127 246.141 102.661 247.14 102.661 248.637V251.133H113.743V248.637C113.456 247.385 112.288 246.141 110.832 246.141Z" fill="#6586A5"/>
<path fill-rule="evenodd" clip-rule="evenodd" d="M134.463 208.768H66.5039V215.248H134.166C135.919 215.248 137.375 214.004 137.375 212.507V211.509C137.672 210.02 136.206 208.768 134.463 208.768Z" fill="#495C7A"/>
<path fill-rule="evenodd" clip-rule="evenodd" d="M114.339 157.2C130.67 167.909 133.008 184.109 133.008 184.109L101.217 184.354L114.339 157.2Z" fill="#B2D3F1"/>
<path fill-rule="evenodd" clip-rule="evenodd" d="M135.334 250.87C135.919 249.626 136.79 247.63 136.503 244.39C136.216 243.146 136.216 241.649 135.919 239.906C135.919 239.162 135.632 238.164 135.632 237.165L142.336 238.663C142.336 239.661 142.049 240.66 142.049 241.404C141.763 243.146 142.049 245.143 142.336 246.885C142.336 247.385 142.623 247.884 142.623 248.129C143.208 249.127 147.001 252.113 148.743 254.854C149.03 255.099 152.823 255.598 152.239 256.596C151.952 256.841 144.95 257.341 144.366 256.596C143.494 255.852 141.741 254.355 139.701 254.101V256.841H136.779C136.779 256.841 136.492 254.346 136.195 253.601C135.621 253.12 134.75 252.122 135.334 250.87Z" fill="#D9E9FF"/>
<path fill-rule="evenodd" clip-rule="evenodd" d="M148.457 255.362C147.288 255.362 145.832 255.607 145.248 255.607C144.664 255.362 140.286 250.87 135.622 249.88C135.335 250.38 135.335 250.879 135.037 251.124C134.453 252.367 135.324 253.366 135.622 254.11C135.622 254.854 136.206 257.35 136.206 257.35H139.128V254.609C141.168 254.854 142.921 256.606 143.792 257.105C144.664 257.849 151.379 257.35 151.666 257.105C152.548 256.106 148.754 255.607 148.457 255.362Z" fill="#2B1710"/>
<path fill-rule="evenodd" clip-rule="evenodd" d="M114.625 149.73C115.794 148.732 115.496 146.99 113.754 145.991C112.001 144.993 110.258 143.995 111.714 142.007L102.087 135.282C98.5916 134.783 94.214 137.778 93.6296 140.764C93.3427 143.75 92.1739 144.249 90.7076 145.002C89.5388 145.746 89.252 147.244 90.1232 148.986C90.9945 150.729 89.252 152.725 89.252 152.725H114.923C114.041 152.217 113.456 150.974 114.625 149.73Z" fill="#2B1710"/>
<path fill-rule="evenodd" clip-rule="evenodd" d="M111.417 187.848L117.25 191.832C131.541 193.575 155.459 194.818 156.628 201.798C157.796 208.523 147.299 230.694 147.299 230.694L146.714 245.397H133.879L126.005 211.518C126.005 211.518 94.2146 213.015 88.6682 205.292C84.2906 199.066 89.837 191.342 89.837 191.342L107.05 182.121L111.417 187.848Z" fill="#AB90FF"/>
<path fill-rule="evenodd" clip-rule="evenodd" d="M116.082 190.834H91.2928C84.8751 172.647 88.9552 157.953 88.9552 157.953C92.1641 155.956 95.9573 155.457 95.9573 155.457L106.455 155.212C110.535 155.457 114.626 156.955 114.626 156.955C117.25 163.435 121.044 168.916 120.746 172.147C120.459 175.632 114.626 183.61 116.082 190.834Z" fill="white"/>
<path fill-rule="evenodd" clip-rule="evenodd" d="M100.919 149.73C96.5414 150.475 93.9169 146.99 95.3726 144.249C95.0857 138.522 97.7102 133.04 107.624 136.026C112.586 136.525 114.328 142.007 110.248 143.505C104.999 147.734 100.919 149.73 100.919 149.73Z" fill="#2B1710"/>
<path fill-rule="evenodd" clip-rule="evenodd" d="M104.999 151.972C104.712 153.47 104.415 155.212 107.337 155.457C110.259 159.441 109.09 162.936 107.624 163.181C104.128 164.179 95.0859 156.456 95.0859 155.702C95.0859 155.457 97.4235 155.203 98.0079 153.96C98.8792 152.716 99.1767 149.721 98.8792 145.492C100.632 145.991 101.504 144.748 101.504 142.506C101.504 140.265 102.672 136.779 107.624 137.279C109.377 139.275 110.546 140.519 110.248 143.005C109.951 145.492 110.535 147.489 109.961 148.487C109.961 149.73 108.506 151.972 104.999 151.972Z" fill="#D9E9FF"/>
<path fill-rule="evenodd" clip-rule="evenodd" d="M96.541 146.236C96.541 146.98 97.1254 147.48 97.9967 147.48C98.868 147.48 99.4523 146.98 99.4523 146.236C99.4523 145.492 98.868 144.993 97.9967 144.993C97.1254 144.993 96.541 145.492 96.541 146.236Z" fill="#D9E9FF"/>
<path fill-rule="evenodd" clip-rule="evenodd" d="M104.415 148.233H108.793C108.793 149.73 106.168 150.475 104.415 148.233Z" fill="#2B1710"/>
<path fill-rule="evenodd" clip-rule="evenodd" d="M107.921 137.27C107.635 140.755 101.801 141.254 100.632 141.254C99.4637 141.009 102.375 135.772 107.921 137.27Z" fill="#2B1710"/>
<path fill-rule="evenodd" clip-rule="evenodd" d="M117.25 191.832C116.378 190.589 116.081 188.847 116.081 188.847L90.4207 188.592C89.252 191.578 89.252 191.832 89.252 191.832H117.25Z" fill="#2B1710"/>
<path d="M103.831 188.338H102.375V192.323H103.831V188.338Z" fill="#E75E54"/>
<path d="M92.7486 188.338H91.293V192.323H92.7486V188.338Z" fill="#AB90FF"/>
<path fill-rule="evenodd" clip-rule="evenodd" d="M84.5877 184.354C83.132 190.58 82.8345 202.542 83.7164 205.029C84.3008 207.524 83.132 209.013 80.7944 209.512C78.4569 209.757 77.2987 211.509 75.8324 211.009C74.3768 210.51 76.7037 208.514 77.8725 208.269C74.6636 208.514 73.208 211.754 71.7523 212.008C70.5835 212.008 70.5835 211.263 70.5835 211.263C69.4147 211.263 69.4147 210.519 69.4147 210.519C68.5435 209.775 69.9991 207.279 72.0392 206.281C74.0792 205.283 76.7037 204.039 76.7037 202.796C76.7037 201.553 72.6236 186.605 72.9105 184.363C73.4949 181.867 84.5877 184.354 84.5877 184.354Z" fill="#D9E9FF"/>
<path fill-rule="evenodd" clip-rule="evenodd" d="M85.4591 181.368C87.4992 182.112 87.7967 184.608 84.2903 185.607C80.7946 186.605 73.7925 186.351 72.3369 184.363C70.8812 182.621 73.2081 181.123 74.09 180.878C74.9613 180.615 85.4591 181.368 85.4591 181.368Z" fill="white"/>
<path fill-rule="evenodd" clip-rule="evenodd" d="M88.9551 157.953C94.7884 164.932 91.8771 174.643 88.3707 176.885C85.1619 179.127 85.1619 182.612 85.1619 182.612C81.3686 185.597 72.9109 183.111 72.624 182.612C74.3772 172.901 80.4974 160.939 88.9551 157.953Z" fill="#B2D3F1"/>
<path fill-rule="evenodd" clip-rule="evenodd" d="M161.005 164.179H126.877L120.746 185.852H155.172L161.005 164.179Z" fill="#253B59"/>
<path fill-rule="evenodd" clip-rule="evenodd" d="M162.461 164.179H128.332L122.499 185.852H156.627L162.461 164.179Z" fill="#19273B"/>
<path fill-rule="evenodd" clip-rule="evenodd" d="M142.623 176.631H139.414V175.887C139.414 174.389 140.87 173.391 142.336 173.391H145.545V174.135C145.545 175.387 144.079 176.631 142.623 176.631Z" fill="#253B59"/>
<path d="M156.33 185.852H109.079V187.848H156.33V185.852Z" fill="#19273B"/>
<path d="M414.163 215.248H408.914V251.623H414.163V215.248Z" fill="#587690"/>
<path d="M426.414 247.639H396.663V251.623H426.414V247.639Z" fill="#587690"/>
<path fill-rule="evenodd" clip-rule="evenodd" d="M381.788 208.523H433.703V215.003H381.788C380.035 215.003 378.579 213.759 378.579 212.262V211.264C378.59 209.766 380.045 208.523 381.788 208.523Z" fill="#627594"/>
<path fill-rule="evenodd" clip-rule="evenodd" d="M367.497 193.321H396.663C397.832 193.321 399.001 192.323 399.001 191.324V190.58C399.001 189.582 397.832 188.583 396.663 188.583H367.497C366.328 188.583 365.159 189.582 365.159 190.58V191.324C365.17 192.332 366.339 193.321 367.497 193.321Z" fill="white"/>
<path fill-rule="evenodd" clip-rule="evenodd" d="M367.497 188.592C366.328 188.592 365.159 189.591 365.159 190.589V191.333C365.159 192.332 366.328 193.33 367.497 193.33H396.663C397.832 193.33 399.001 192.332 399.001 191.333V190.589C399.001 189.591 397.832 188.592 396.663 188.592H367.497ZM396.961 193.321H367.794C366.625 193.321 365.457 192.323 365.457 191.324V190.58C365.457 189.582 366.625 188.583 367.794 188.583H396.961C398.129 188.583 399.298 189.582 399.298 190.58V191.324C399.288 192.332 398.129 193.321 396.961 193.321Z" fill="#2B1710"/>
<path d="M426.711 215.003H396.376V220.729H426.711V215.003Z" fill="#6586A5"/>
<path fill-rule="evenodd" clip-rule="evenodd" d="M420.878 253.121C420.878 255.616 423.215 257.359 425.84 257.359C428.762 257.359 430.802 255.362 430.802 253.121C430.802 250.625 428.464 248.882 425.84 248.882C422.918 248.882 420.878 250.625 420.878 253.121Z" fill="#587690"/>
<path fill-rule="evenodd" clip-rule="evenodd" d="M423.205 253.12C423.205 254.364 424.374 255.362 425.83 255.362C427.285 255.362 428.454 254.364 428.454 253.12C428.454 251.877 427.285 250.879 425.83 250.879C424.374 250.879 423.205 251.868 423.205 253.12Z" fill="#496278"/>
<path fill-rule="evenodd" clip-rule="evenodd" d="M423.205 246.141H428.454C429.91 246.141 431.376 247.14 431.376 248.637V251.133H420.294V248.637C420.294 247.385 421.75 246.141 423.205 246.141Z" fill="#6586A5"/>
<path fill-rule="evenodd" clip-rule="evenodd" d="M406.29 253.121C406.29 255.616 408.628 257.359 411.252 257.359C414.174 257.359 416.214 255.362 416.214 253.121C416.214 250.625 413.876 248.882 411.252 248.882C408.628 248.882 406.29 250.625 406.29 253.121Z" fill="#587690"/>
<path fill-rule="evenodd" clip-rule="evenodd" d="M408.914 253.121C408.914 254.364 410.083 255.362 411.539 255.362C412.994 255.362 414.163 254.364 414.163 253.121C414.163 251.877 412.994 250.879 411.539 250.879C409.796 250.87 408.914 251.868 408.914 253.121Z" fill="#496278"/>
<path fill-rule="evenodd" clip-rule="evenodd" d="M408.627 246.141H413.876C415.332 246.141 416.798 247.14 416.798 248.637V251.133H405.716V248.637C405.705 247.385 407.172 246.141 408.627 246.141Z" fill="#6586A5"/>
<path fill-rule="evenodd" clip-rule="evenodd" d="M391.712 253.121C391.712 255.616 394.049 257.359 396.674 257.359C399.596 257.359 401.636 255.362 401.636 253.121C401.636 250.625 399.298 248.882 396.674 248.882C394.039 248.882 391.712 250.625 391.712 253.121Z" fill="#587690"/>
<path fill-rule="evenodd" clip-rule="evenodd" d="M394.336 253.121C394.336 254.364 395.505 255.362 396.96 255.362C398.416 255.362 399.585 254.364 399.585 253.121C399.585 251.877 398.416 250.879 396.96 250.879C395.505 250.87 394.336 251.868 394.336 253.121Z" fill="#496278"/>
<path fill-rule="evenodd" clip-rule="evenodd" d="M394.039 246.141H399.288C400.744 246.141 402.21 247.14 402.21 248.637V251.133H391.128V248.637C391.415 247.385 392.584 246.141 394.039 246.141Z" fill="#6586A5"/>
<path fill-rule="evenodd" clip-rule="evenodd" d="M434.585 148.732H434C431.96 148.732 430.207 150.23 430.207 151.972V215.248H438.378V151.972C438.378 150.23 436.625 148.732 434.585 148.732Z" fill="#627594"/>
<path fill-rule="evenodd" clip-rule="evenodd" d="M396.377 185.353C396.377 185.353 351.464 189.591 350.582 193.575C349.71 197.314 361.377 226.456 361.377 226.456C361.377 226.456 377.708 204.03 378.006 203.041C378.292 202.297 391.712 197.559 392.297 197.314C392.583 197.314 394.05 193.076 394.921 189.591C395.792 187.349 396.377 185.353 396.377 185.353Z" fill="#213A72"/>
<path fill-rule="evenodd" clip-rule="evenodd" d="M368.665 246.141L367.794 251.124C368.963 253.865 368.665 257.35 368.665 257.35H347.67C350.007 253.111 358.465 253.111 359.623 251.124C360.792 249.127 361.079 243.155 361.079 243.155L368.665 246.141Z" fill="#A150BE"/>
<path fill-rule="evenodd" clip-rule="evenodd" d="M363.417 251.623C363.417 250.879 362.832 248.383 360.495 247.639C360.208 249.136 359.91 250.38 359.623 251.124C358.455 253.12 349.997 253.121 347.67 257.35H368.665C368.665 257.35 368.952 253.865 367.794 251.124C367.794 251.369 363.714 252.866 363.417 251.623Z" fill="#2B1710"/>
<path fill-rule="evenodd" clip-rule="evenodd" d="M348.254 256.605C347.967 256.851 347.67 257.105 347.67 257.35H368.665C368.665 257.35 368.665 257.105 368.665 256.605H348.254Z" fill="#693E2F"/>
<path fill-rule="evenodd" clip-rule="evenodd" d="M361.377 252.122C361.377 252.122 360.792 251.124 360.208 250.879C359.921 250.879 359.624 250.879 359.337 250.879H359.05V250.634C359.337 250.389 359.921 250.389 360.219 250.634C361.09 251.124 361.377 252.122 361.377 252.122Z" fill="#693E2F"/>
<path fill-rule="evenodd" clip-rule="evenodd" d="M359.039 253.611C359.039 253.611 358.454 252.612 357.87 252.367C357.583 252.367 357.286 252.367 356.999 252.367H356.712V252.122C356.999 251.877 357.583 251.877 357.881 252.122C358.752 252.621 359.336 253.365 359.039 253.611C359.336 253.611 359.336 253.611 359.039 253.611Z" fill="#693E2F"/>
<path fill-rule="evenodd" clip-rule="evenodd" d="M355.544 254.609C355.544 254.609 354.959 253.611 354.375 253.366C354.088 253.366 353.791 253.366 353.504 253.366H353.217V253.121C353.504 252.876 354.088 252.876 354.386 253.121C355.246 253.611 355.544 254.364 355.544 254.609Z" fill="#693E2F"/>
<path fill-rule="evenodd" clip-rule="evenodd" d="M375.667 178.373C368.081 182.857 356.712 185.852 356.712 185.852L361.376 191.079C369.834 190.335 380.916 187.095 380.916 187.095L375.667 178.373Z" fill="#FF7A52"/>
<path fill-rule="evenodd" clip-rule="evenodd" d="M377.708 176.631C376.836 175.886 374.212 175.886 373.33 177.629C372.746 178.872 375.083 183.356 377.41 185.352C379.748 187.349 381.788 188.093 383.53 187.349C385.284 186.85 385.284 185.107 385.284 185.107L377.708 176.631Z" fill="#F6DCCA"/>
<path fill-rule="evenodd" clip-rule="evenodd" d="M400.456 154.713C394.91 152.716 390.83 162.436 385.581 168.417C381.501 173.155 377.41 175.896 375.954 177.139C375.667 177.384 375.37 177.883 375.667 178.137C376.836 180.134 380.045 185.861 383.541 185.861C397.545 181.368 412.707 163.68 400.456 154.713Z" fill="#BDABFF"/>
<path fill-rule="evenodd" clip-rule="evenodd" d="M360.793 197.06C361.08 196.561 396.079 189.092 396.079 189.092C396.366 188.347 396.366 187.349 396.366 186.351L429.028 197.314C424.948 210.519 408.904 208.523 377.4 208.777C375.647 210.02 371.28 247.893 371.28 247.893L356.691 246.65C356.713 246.141 360.506 197.559 360.793 197.06Z" fill="#0F275C"/>
<path fill-rule="evenodd" clip-rule="evenodd" d="M338.628 170.65H371.588L377.123 191.333H344.461L338.628 170.65Z" fill="#253B59"/>
<path fill-rule="evenodd" clip-rule="evenodd" d="M337.172 170.65H370.121L375.667 191.333H343.005L337.172 170.65Z" fill="#19273B"/>
<path fill-rule="evenodd" clip-rule="evenodd" d="M356.712 182.612H359.634V182.112C359.634 180.615 358.178 179.372 356.425 179.372H353.503V179.871C353.503 181.368 354.959 182.612 356.712 182.612Z" fill="#253B59"/>
<path d="M388.503 191.333H343.006V193.076H388.503V191.333Z" fill="#19273B"/>
<path fill-rule="evenodd" clip-rule="evenodd" d="M392.583 165.667C392.296 157.445 393.455 155.702 394.623 153.706C395.792 151.709 403.665 150.466 403.665 150.466C413.876 154.45 431.961 177.121 429.921 193.312C429.634 194.809 429.336 196.053 429.049 197.296C429.049 197.541 428.762 197.795 428.762 198.04C414.174 195.544 401.349 189.573 396.387 187.077C396.663 181.867 392.881 173.146 392.583 165.667Z" fill="#BDABFF"/>
<path fill-rule="evenodd" clip-rule="evenodd" d="M397.832 181.867C397.832 181.867 382.086 185.107 380.619 184.608C379.451 183.864 373.617 182.866 372.449 182.866C371.28 182.866 366.615 184.363 366.615 184.363C366.902 184.862 369.24 184.608 369.24 184.608C369.24 184.608 367.2 185.852 368.071 186.351C368.071 187.095 368.655 187.095 368.655 187.095C368.942 187.594 372.151 187.095 373.904 187.839C375.657 188.583 378.866 190.335 380.024 190.081C381.193 189.836 382.946 189.337 382.946 189.337L401.615 191.833L397.832 181.867Z" fill="#A150BE"/>
<path fill-rule="evenodd" clip-rule="evenodd" d="M401.626 181.114C401.041 180.116 398.704 179.871 397.546 180.869C396.377 181.867 397.546 187.349 399.299 189.836C401.052 192.332 403.092 193.321 404.845 193.076C406.598 192.831 407.183 191.333 407.183 191.333L401.626 181.114Z" fill="#BDABFF"/>
<path fill-rule="evenodd" clip-rule="evenodd" d="M399.872 144.993C399.872 144.993 398.119 134.284 392.286 134.529C388.206 133.285 383.531 137.27 383.531 137.27C380.035 139.012 380.609 142.497 383.244 142.751C385.868 142.996 393.157 147.734 393.157 147.734L398.99 146.236L399.872 144.993Z" fill="#2B1710"/>
<path fill-rule="evenodd" clip-rule="evenodd" d="M383.838 139.765C383.254 141.263 382.967 142.751 383.254 143.75C383.541 144.494 385.294 146.49 385.592 146.735C385.592 146.98 384.423 149.975 384.423 149.975C384.423 149.975 385.294 150.22 386.76 149.73C387.632 151.228 390.256 153.969 391.138 153.969C392.009 153.969 394.06 152.725 394.06 152.725C394.931 152.97 395.229 153.724 395.229 153.724C395.229 153.724 393.475 154.967 394.942 155.466C396.397 155.711 403.697 151.981 403.697 150.983C401.944 148.741 399.904 145.501 399.904 145.501C399.032 145.746 397.566 145.002 397.566 145.002C397.566 145.002 396.695 145.002 396.695 144.757C395.824 144.512 395.526 145.002 394.942 145.256C394.655 145.501 392.902 144.512 393.189 143.759C393.475 143.014 393.773 142.016 393.475 141.517C393.475 141.018 391.138 138.032 389.98 138.531C389.087 138.767 385.294 140.51 383.838 139.765Z" fill="#A150BE"/>
<path fill-rule="evenodd" clip-rule="evenodd" d="M398.714 145.737C398.714 146.735 397.843 147.235 396.961 147.235C395.792 147.235 395.208 146.49 395.208 145.737C395.208 144.739 396.079 144.24 396.961 144.24C397.832 143.995 398.714 144.748 398.714 145.737Z" fill="#A150BE"/>
<path fill-rule="evenodd" clip-rule="evenodd" d="M407.172 154.214C406.301 153.969 405.419 153.715 404.834 153.969C399.872 155.212 396.961 158.452 399.585 164.932C402.21 172.156 406.29 179.381 400.457 181.123C399.288 183.12 402.21 187.848 403.665 190.09C404.25 190.834 404.834 191.333 406.003 191.333C413.589 192.332 420.592 189.836 420.878 181.368C420.878 173.146 415.332 158.198 407.172 154.214Z" fill="#BDABFF"/>
<path fill-rule="evenodd" clip-rule="evenodd" d="M386.75 149.731C389.374 148.732 390.543 148.986 391.999 147.734C393.752 146.736 392.286 143.75 392.87 142.996C393.157 142.252 394.623 144.494 394.623 144.494C394.336 145.737 395.208 146.49 395.792 147.235C396.079 147.979 396.663 149.476 396.377 149.731C396.09 149.976 395.208 151.727 393.752 152.471C392.296 153.216 390.83 154.468 389.672 153.47C388.503 153.216 386.75 149.731 386.75 149.731Z" fill="#2B1710"/>
<path fill-rule="evenodd" clip-rule="evenodd" d="M387.621 150.72C389.077 149.975 391.701 149.476 391.999 149.975C391.999 150.475 388.205 153.215 387.621 150.72Z" fill="#A150BE"/>
<path fill-rule="evenodd" clip-rule="evenodd" d="M402.21 196.062H431.376C432.545 196.062 433.714 195.063 433.714 194.065V193.321C433.714 192.323 432.545 191.324 431.376 191.324H402.21C401.041 191.324 399.872 192.323 399.872 193.321V194.065C399.872 195.318 401.041 196.062 402.21 196.062Z" fill="#495C7A"/>
<path d="M296.329 187.594H101.206V194.573H296.329V187.594Z" fill="#B26652"/>
<path fill-rule="evenodd" clip-rule="evenodd" d="M307.422 192.577C307.422 192.577 285.545 192.078 282.049 195.318C278.553 198.303 280.296 249.881 280.296 249.881H294.587L298.38 210.519H329.586L330.755 190.344L307.422 192.577Z" fill="#C8906B"/>
<path fill-rule="evenodd" clip-rule="evenodd" d="M285.246 192.577C285.246 192.577 263.369 192.078 259.873 195.318C256.377 198.303 258.12 249.881 258.12 249.881H271.54L276.204 210.519H307.411L308.579 190.344L285.246 192.577Z" fill="#E4B492"/>
<path fill-rule="evenodd" clip-rule="evenodd" d="M298.082 139.266C294.873 137.27 296.913 134.783 297.21 134.783C297.497 132.541 300.706 128.303 309.461 132.786C309.748 131.289 311.214 131.289 310.63 133.031C312.086 132.786 312.383 133.775 311.799 134.03C315.879 137.015 315.008 139.756 314.136 140.51C314.721 143.25 310.928 144.748 310.928 144.748C309.472 144.748 305.381 147.244 304.223 146.745C303.054 146 300.143 144.748 299.559 143.505C299.835 142.252 298.082 139.266 298.082 139.266Z" fill="#2B1710"/>
<path fill-rule="evenodd" clip-rule="evenodd" d="M311.204 144.993C311.204 144.993 310.333 151.718 313.245 153.216C308.867 154.214 302.162 155.212 300.409 152.97C302.449 152.97 302.449 152.471 302.449 150.729C297.785 149.985 298.072 146.745 297.785 142.261C297.785 140.019 297.498 137.778 297.785 136.035C298.369 138.032 301.578 139.021 301.578 139.021C301.291 140.764 301.865 142.76 303.916 142.506C305.956 142.261 306.253 142.751 306.253 142.751C306.253 144.494 309.164 145.247 311.204 144.993Z" fill="#FCDCB5"/>
<path fill-rule="evenodd" clip-rule="evenodd" d="M307.124 142.506C307.124 143.505 306.253 144.249 305.084 144.249C303.915 144.249 303.044 143.505 303.044 142.506C303.044 141.508 303.915 140.764 305.084 140.764C305.955 140.755 307.124 141.753 307.124 142.506Z" fill="#FCDCB5"/>
<path fill-rule="evenodd" clip-rule="evenodd" d="M320.246 155.702C332.784 166.666 340.955 186.841 319.375 189.836C297.497 193.076 320.246 155.702 320.246 155.702Z" fill="#C13455"/>
<path fill-rule="evenodd" clip-rule="evenodd" d="M300.706 152.716C297.21 153.216 294.288 154.958 294.288 154.958C288.455 162.926 285.533 192.078 285.533 192.078L322.573 192.577C322.573 190.335 323.157 158.443 319.949 155.956C317.027 153.461 312.362 152.471 312.362 152.471C312.362 152.471 304.797 152.471 300.706 152.716Z" fill="#FFB02B"/>
<path fill-rule="evenodd" clip-rule="evenodd" d="M261.626 171.149C261.339 170.405 260.171 166.166 259.873 165.667C259.586 165.168 255.209 161.928 254.911 161.683C254.327 161.438 250.831 160.44 250.831 160.44C250.247 161.184 250.831 161.937 251.702 162.436C252.574 162.936 254.04 163.68 254.04 163.934C254.04 164.188 254.624 164.932 254.624 164.932C254.337 164.932 253.169 167.174 252.871 167.918C252.584 168.662 252.871 169.661 253.742 170.659C254.614 171.657 259.576 174.643 259.576 174.643L261.626 171.149Z" fill="#FCDCB5"/>
<path fill-rule="evenodd" clip-rule="evenodd" d="M294.289 154.713C290.496 156.456 286.702 163.181 283.494 167.419C280.285 171.657 269.203 175.387 261.032 168.163C260.745 168.408 258.407 174.888 258.407 174.888C260.16 179.372 270.361 186.351 283.196 184.853C296.031 183.356 298.656 171.902 298.943 168.408C299.835 162.436 298.38 155.702 294.289 154.713Z" fill="#BDABFF"/>
<path d="M321.713 215.248H316.464V251.623H321.713V215.248Z" fill="#587690"/>
<path d="M333.964 247.639H304.213V251.623H333.964V247.639Z" fill="#587690"/>
<path fill-rule="evenodd" clip-rule="evenodd" d="M277.958 208.768H345.62V215.248H277.958C276.205 215.248 274.749 214.004 274.749 212.507V211.509C274.749 210.02 276.205 208.768 277.958 208.768Z" fill="#495C7A"/>
<path fill-rule="evenodd" clip-rule="evenodd" d="M305.084 215.248H343.293V164.179C343.293 156.456 336.004 150.23 326.961 150.23H321.415C312.373 150.23 305.084 156.456 305.084 164.179V215.248Z" fill="#495C7A"/>
<path fill-rule="evenodd" clip-rule="evenodd" d="M307.708 215.248H345.917V164.179C345.917 156.456 338.628 150.23 329.585 150.23H324.039C314.997 150.23 307.708 156.456 307.708 164.179V215.248Z" fill="#627594"/>
<path fill-rule="evenodd" clip-rule="evenodd" d="M275.047 193.321H304.213C305.382 193.321 306.551 192.323 306.551 191.324V190.58C306.551 189.582 305.382 188.583 304.213 188.583H275.047C273.878 188.583 272.709 189.582 272.709 190.58V191.324C272.709 192.332 273.878 193.321 275.047 193.321Z" fill="#495C7A"/>
<path d="M334.25 215.248H303.915V220.729H334.25V215.248Z" fill="#6586A5"/>
<path fill-rule="evenodd" clip-rule="evenodd" d="M328.13 253.121C328.13 255.616 330.467 257.359 333.092 257.359C336.014 257.359 338.054 255.362 338.054 253.121C338.054 250.625 335.716 248.882 333.092 248.882C330.457 248.882 328.13 250.625 328.13 253.121Z" fill="#587690"/>
<path fill-rule="evenodd" clip-rule="evenodd" d="M330.755 253.12C330.755 254.364 331.924 255.362 333.379 255.362C334.835 255.362 336.004 254.364 336.004 253.12C336.004 251.877 334.835 250.879 333.379 250.879C331.924 250.879 330.755 251.868 330.755 253.12Z" fill="#496278"/>
<path fill-rule="evenodd" clip-rule="evenodd" d="M330.755 246.141H336.004C337.46 246.141 338.926 247.14 338.926 248.637V251.133H327.844V248.637C327.833 247.385 329.002 246.141 330.755 246.141Z" fill="#6586A5"/>
<path fill-rule="evenodd" clip-rule="evenodd" d="M313.839 253.121C313.839 255.616 316.176 257.359 318.801 257.359C321.723 257.359 323.763 255.362 323.763 253.121C323.763 250.625 321.425 248.882 318.801 248.882C315.879 248.882 313.839 250.625 313.839 253.121Z" fill="#587690"/>
<path fill-rule="evenodd" clip-rule="evenodd" d="M316.166 253.12C316.166 254.364 317.335 255.362 318.79 255.362C320.246 255.362 321.415 254.364 321.415 253.12C321.415 251.877 320.246 250.879 318.79 250.879C317.335 250.879 316.166 251.868 316.166 253.12Z" fill="#496278"/>
<path fill-rule="evenodd" clip-rule="evenodd" d="M316.166 246.141H321.415C322.871 246.141 324.337 247.14 324.337 248.637V251.133H313.255V248.637C313.255 247.385 314.413 246.141 316.166 246.141Z" fill="#6586A5"/>
<path fill-rule="evenodd" clip-rule="evenodd" d="M299.251 253.121C299.251 255.616 301.589 257.359 304.213 257.359C307.135 257.359 309.175 255.362 309.175 253.121C309.175 250.625 306.837 248.882 304.213 248.882C301.589 248.882 299.251 250.625 299.251 253.121Z" fill="#587690"/>
<path fill-rule="evenodd" clip-rule="evenodd" d="M301.588 253.121C301.588 254.364 302.757 255.362 304.212 255.362C305.668 255.362 306.837 254.364 306.837 253.121C306.837 251.877 305.668 250.879 304.212 250.879C302.746 250.87 301.588 251.868 301.588 253.121Z" fill="#496278"/>
<path fill-rule="evenodd" clip-rule="evenodd" d="M301.588 246.141H306.837C308.293 246.141 309.759 247.14 309.759 248.637V251.133H298.677V248.637C298.666 247.385 300.122 246.141 301.588 246.141Z" fill="#6586A5"/>
<path fill-rule="evenodd" clip-rule="evenodd" d="M138.83 194.573H133.294L117.537 257.604H123.084L138.83 194.573Z" fill="#587690"/>
<path fill-rule="evenodd" clip-rule="evenodd" d="M374.797 125.807L386.463 120.325C384.71 118.084 383.541 115.588 383.541 112.847C383.541 105.623 390.544 99.6418 399.001 99.6418H443.914C452.372 99.6418 459.374 105.623 459.374 112.847C459.374 120.071 452.372 126.052 443.914 126.052H399.001C398.417 126.052 397.833 126.052 397.248 126.052L374.797 125.807Z" fill="#D6C5FA"/>
<path fill-rule="evenodd" clip-rule="evenodd" d="M413.005 108.618H394.921C394.049 108.618 393.465 108.118 393.465 107.374V106.63C393.465 105.886 394.049 105.387 394.921 105.387H413.005C413.876 105.387 414.46 105.886 414.46 106.63V107.374C414.46 108.118 413.589 108.618 413.005 108.618Z" fill="white"/>
<path fill-rule="evenodd" clip-rule="evenodd" d="M446.836 123.066H428.752C427.88 123.066 427.296 122.567 427.296 121.823V121.079C427.296 120.334 427.88 119.835 428.752 119.835H446.836C447.707 119.835 448.291 120.334 448.291 121.079V121.823C448.291 122.322 447.42 123.066 446.836 123.066Z" fill="white"/>
<path fill-rule="evenodd" clip-rule="evenodd" d="M447.707 115.842H394.91C394.038 115.842 393.454 115.343 393.454 114.599V113.854C393.454 113.11 394.038 112.611 394.91 112.611H447.707C448.578 112.611 449.162 113.11 449.162 113.854V114.599C449.173 115.352 448.291 115.842 447.707 115.842Z" fill="white"/>
<path fill-rule="evenodd" clip-rule="evenodd" d="M156.915 107.374L145.248 101.893C147.001 99.6509 148.17 97.1551 148.17 94.1692C148.17 86.945 141.168 80.9641 132.71 80.9641H87.2127C78.755 80.9641 71.7529 86.945 71.7529 94.1692C71.7529 101.393 78.755 107.374 87.2127 107.374H132.423C133.008 107.374 133.592 107.374 134.177 107.374H156.915Z" fill="#684EB9"/>
<path fill-rule="evenodd" clip-rule="evenodd" d="M101.504 89.94H83.4195C82.5483 89.94 81.9639 89.4408 81.9639 88.6966V87.9433C81.9639 87.1991 82.5483 86.7 83.4195 86.7H101.504C102.375 86.7 102.959 87.1991 102.959 87.9433V88.6875C102.959 89.4408 102.088 89.94 101.504 89.94Z" fill="white"/>
<path fill-rule="evenodd" clip-rule="evenodd" d="M135.621 104.633H117.537C116.665 104.633 116.081 104.134 116.081 103.39V102.646C116.081 101.902 116.665 101.402 117.537 101.402H135.621C136.492 101.402 137.077 101.902 137.077 102.646V103.39C137.087 103.889 136.503 104.633 135.621 104.633Z" fill="white"/>
<path fill-rule="evenodd" clip-rule="evenodd" d="M136.503 97.4092H83.1217C82.2504 97.4092 81.666 96.91 81.666 96.1658V95.4216C81.666 94.6774 82.2504 94.1782 83.1217 94.1782H136.493C137.364 94.1782 137.948 94.6774 137.948 95.4216V96.1658C137.959 96.665 137.374 97.4092 136.503 97.4092Z" fill="white"/>
<path fill-rule="evenodd" clip-rule="evenodd" d="M377.708 94.4232L385.294 90.9382C384.126 89.4407 383.541 87.9523 383.541 85.9556C383.541 81.2181 387.919 77.488 393.455 77.488H422.334C427.881 77.488 432.248 81.2272 432.248 85.9556C432.248 90.6931 427.87 94.4232 422.334 94.4232H393.455C393.168 94.4232 392.583 94.4232 392.286 94.4232H377.708Z" fill="#684EB9"/>
<path fill-rule="evenodd" clip-rule="evenodd" d="M413.005 83.2057H424.672C425.256 83.2057 425.543 82.9607 425.543 82.4615V81.9623C425.543 81.4632 425.256 81.2181 424.672 81.2181H413.005C412.421 81.2181 412.134 81.4632 412.134 81.9623V82.4615C412.123 82.9607 412.421 83.2057 413.005 83.2057Z" fill="white"/>
<path fill-rule="evenodd" clip-rule="evenodd" d="M391.127 92.4267H402.794C403.378 92.4267 403.665 92.1816 403.665 91.6825V91.1833C403.665 90.6841 403.378 90.4391 402.794 90.4391H391.127C390.543 90.4391 390.256 90.6841 390.256 91.1833V91.6825C390.256 92.1816 390.543 92.4267 391.127 92.4267Z" fill="white"/>
<path fill-rule="evenodd" clip-rule="evenodd" d="M390.543 87.9433H424.672C425.256 87.9433 425.543 87.6982 425.543 87.1991V86.6999C425.543 86.2007 425.256 85.9557 424.672 85.9557H390.543C389.959 85.9557 389.672 86.2007 389.672 86.6999V87.1991C389.672 87.4441 389.959 87.9433 390.543 87.9433Z" fill="white"/>
<path fill-rule="evenodd" clip-rule="evenodd" d="M173.83 73.7399H223.121C224.29 73.7399 225.161 72.9957 225.161 71.9974V70.754C225.161 69.7557 224.29 69.0115 223.121 69.0115H173.83C172.661 69.0115 171.79 69.7557 171.79 70.754V71.9974C171.79 72.7416 172.672 73.7399 173.83 73.7399Z" fill="white"/>
<path fill-rule="evenodd" clip-rule="evenodd" d="M173.83 81.9624H223.121C224.29 81.9624 225.161 81.2182 225.161 80.2199V78.9765C225.161 77.9782 224.29 77.234 223.121 77.234H173.83C172.661 77.234 171.79 77.9782 171.79 78.9765V80.2199C171.79 81.2182 172.672 81.9624 173.83 81.9624Z" fill="white"/>
<path fill-rule="evenodd" clip-rule="evenodd" d="M173.83 90.43H195.994C197.163 90.43 198.035 89.6858 198.035 88.6874V87.4441C198.035 86.4457 197.163 85.7015 195.994 85.7015H173.83C172.661 85.7015 171.79 86.4457 171.79 87.4441V88.6874C171.79 89.6858 172.672 90.43 173.83 90.43Z" fill="white"/>
<path d="M260.744 93.9241H252.871V121.333H260.744V93.9241Z" fill="#C9A7FF"/>
<path d="M272.411 99.6509H264.538V121.578H272.411V99.6509Z" fill="#F2F8FF"/>
<path d="M284.077 109.616H276.204V121.578H284.077V109.616Z" fill="#BDABFF"/>
<path d="M295.744 89.6858H287.871V121.578H295.744V89.6858Z" fill="#F2F8FF"/>
<path d="M307.41 75.9816H299.537V121.324H307.41V75.9816Z" fill="#C9A7FF"/>
<path d="M319.077 90.9292H311.204V121.324H319.077V90.9292Z" fill="#BDABFF"/>
<path d="M330.754 81.7174H322.881V121.333H330.754V81.7174Z" fill="#F2F8FF"/>
<path d="M342.421 97.6633H334.548V121.333H342.421V97.6633Z" fill="#BDABFF"/>
<path d="M354.375 124.064H240.918V125.562H354.375V124.064Z" fill="#CBEAFF"/>
<path fill-rule="evenodd" clip-rule="evenodd" d="M199.214 124.564L206.216 118.338C214.387 125.562 216.129 136.77 210.009 145.492L201.254 140.755C205.047 135.527 203.878 128.802 199.214 124.564Z" fill="#92BEF4"/>
<path fill-rule="evenodd" clip-rule="evenodd" d="M178.792 145.247C185.794 149.231 195.42 147.743 200.372 142.007L208.83 146.744C200.659 156.465 184.912 159.205 173.245 152.471C164.203 147.244 159.826 138.023 161.866 129.555L171.779 131.552C170.621 136.77 173.245 142.252 178.792 145.247Z" fill="#684EB9"/>
<path fill-rule="evenodd" clip-rule="evenodd" d="M187.547 120.334C182.298 120.334 177.336 122.576 174.127 126.56C173.256 127.804 172.672 128.802 172.087 130.045L162.174 128.049C162.758 125.807 163.927 123.81 165.67 121.823C170.918 115.098 179.376 111.613 188.131 111.858L187.547 120.334Z" fill="#221E54"/>
<path fill-rule="evenodd" clip-rule="evenodd" d="M189.289 120.334L189.873 111.613C193.954 111.858 198.044 113.11 201.827 115.098C202.996 115.597 203.867 116.341 204.749 116.84L197.747 123.066C197.162 122.821 196.876 122.322 196.291 122.068C194.251 121.324 191.627 120.579 189.289 120.334Z" fill="#684EB9"/>
<path fill-rule="evenodd" clip-rule="evenodd" d="M249.96 267.569C378.877 267.569 483.292 269.566 483.292 272.052C483.292 272.552 477.458 273.296 466.663 273.795H33.2467C22.4514 273.296 16.6182 272.797 16.6182 272.052C16.6288 269.557 121.044 267.569 249.96 267.569Z" fill="#A991FF"/>
<path fill-rule="evenodd" clip-rule="evenodd" d="M455.878 267.814H51.6279V265.073C51.6279 261.089 55.4212 257.595 60.3832 257.595H447.133C451.798 257.595 455.888 260.835 455.888 265.073V267.814H455.878Z" fill="#A991FF"/>
</svg>
