<svg width="457" height="305" viewBox="0 0 457 305" fill="none" xmlns="http://www.w3.org/2000/svg">
<path fill-rule="evenodd" clip-rule="evenodd" d="M230.88 284.611C345.925 284.611 439.013 286.733 439.013 289.375C439.013 289.906 433.723 290.436 424.205 290.967H37.5552C28.0364 290.436 22.7471 289.906 22.7471 289.375C22.7471 286.733 115.835 284.611 230.88 284.611Z" fill="#9810FA"/>
<path fill-rule="evenodd" clip-rule="evenodd" d="M268.175 24.3534C171.908 15.3547 165.029 70.1569 152.34 101.397C147.581 113.048 139.382 121.786 130.923 128.132C120.084 136.34 107.116 141.375 93.6375 142.956C6.87937 154.617 20.8975 271.899 53.6835 281.698H399.868C485.037 119.143 364.173 33.0917 268.175 24.3534Z" fill="#E5F2F9"/>
<path fill-rule="evenodd" clip-rule="evenodd" d="M102.087 50.3077C52.1032 50.5681 38.615 99.8149 65.8515 127.351C103.146 165.738 206.283 49.7773 102.087 50.3077Z" fill="#E5F2F9"/>
<path fill-rule="evenodd" clip-rule="evenodd" d="M417.595 151.965C430.553 157.26 428.704 191.412 413.626 228.217C406.217 246.484 396.698 262.109 387.709 272.429H355.183C352.534 258.136 356.773 234.303 367.082 209.149C382.16 172.354 404.897 146.67 417.595 151.965Z" fill="#AA8FFF"/>
<path fill-rule="evenodd" clip-rule="evenodd" d="M418.915 152.765C418.655 152.505 418.125 152.235 417.596 152.235C413.096 150.383 407.547 152.235 401.467 157.269C396.438 161.243 391.419 166.799 386.129 174.215C379.25 183.745 372.641 195.926 367.092 209.689C356.773 234.843 352.814 258.666 355.193 272.969C359.953 272.969 364.712 272.969 369.472 272.969C386.12 232.721 402.518 192.743 418.915 152.765Z" fill="#6850BE"/>
<path fill-rule="evenodd" clip-rule="evenodd" d="M431.343 221.861C436.893 226.095 431.604 242.781 419.445 258.666C413.366 266.613 406.747 272.96 400.927 276.933L385.06 272.699C385.589 265.282 390.879 254.162 399.078 243.311C411.246 227.156 425.794 217.627 431.343 221.861Z" fill="#CCEBFF"/>
<path fill-rule="evenodd" clip-rule="evenodd" d="M431.874 222.131C429.494 219.749 425.525 220.81 422.615 221.871C407.007 228.487 386.38 256.814 384.8 272.439C387.18 272.969 389.559 273.76 391.679 274.291C405.427 257.075 418.655 239.608 431.874 222.131Z" fill="#D5D8FF"/>
<path fill-rule="evenodd" clip-rule="evenodd" d="M254.417 229.538C259.446 233.512 254.677 248.336 243.578 262.9C238.029 270.047 231.94 275.872 226.651 279.576L212.103 275.602C212.632 268.986 217.392 258.656 224.801 248.867C236.439 234.573 249.397 225.835 254.417 229.538Z" fill="#AA8FFF"/>
<path fill-rule="evenodd" clip-rule="evenodd" d="M254.946 230.069C252.827 227.947 249.127 228.748 246.747 229.809C232.469 235.894 213.692 261.318 212.632 275.873C214.751 276.403 216.861 276.933 218.981 277.464C230.879 261.839 243.048 245.954 254.946 230.069Z" fill="#6850BE"/>
<path fill-rule="evenodd" clip-rule="evenodd" d="M38.345 137.671C23.5369 143.757 25.6468 182.944 42.8443 225.304C51.5731 246.484 62.1517 264.221 72.7303 276.133H110.016C112.925 259.717 108.166 232.181 96.5274 203.324C79.3396 160.973 53.1628 131.585 38.345 137.671Z" fill="#AA8FFF"/>
<path fill-rule="evenodd" clip-rule="evenodd" d="M37.0254 138.201C37.5553 137.941 38.0852 137.671 38.3453 137.411C43.3745 135.289 49.9837 137.411 57.1228 142.966C62.6723 147.47 68.7612 154.087 74.5804 162.294C82.5192 173.415 89.9185 187.178 96.5277 203.063C108.426 231.921 112.926 259.457 110.016 275.872C104.466 275.872 99.1772 275.872 93.6181 275.872C74.8406 230.069 55.8029 184.265 37.0254 138.201Z" fill="#6850BE"/>
<path fill-rule="evenodd" clip-rule="evenodd" d="M19.038 218.688C12.6889 223.452 18.7778 242.52 32.7863 261.048C39.6653 270.317 47.3343 277.464 53.9435 281.968L72.1912 277.203C71.4011 268.735 65.5819 256.023 56.0631 243.311C42.0546 224.774 25.3871 213.653 19.038 218.688Z" fill="#CCEBFF"/>
<path fill-rule="evenodd" clip-rule="evenodd" d="M18.248 219.218C20.8975 216.306 25.6569 217.627 28.8267 218.958C46.8142 226.635 70.6112 258.936 71.9311 276.943C69.2817 277.734 66.6418 278.264 63.9924 279.065C48.664 259.196 33.5861 239.077 18.248 219.218Z" fill="#D5D8FF"/>
<path fill-rule="evenodd" clip-rule="evenodd" d="M322.118 241.72C318.418 244.633 321.858 255.483 330.057 266.073C334.026 271.368 338.516 275.602 342.225 277.985L352.804 275.072C352.274 270.307 349.104 262.89 343.545 255.744C335.346 245.163 325.827 238.807 322.118 241.72Z" fill="#684EB9"/>
<path fill-rule="evenodd" clip-rule="evenodd" d="M321.857 241.99C323.447 240.399 326.087 241.199 327.937 241.99C333.756 244.372 339.835 250.989 343.545 256.023C349.094 263.17 352.273 270.587 352.803 275.352C351.214 275.882 349.634 276.143 348.304 276.673C339.315 264.752 330.586 253.371 321.857 241.99Z" fill="#6850BE"/>
<path fill-rule="evenodd" clip-rule="evenodd" d="M398.558 67.7745L418.395 126.55C422.364 138.201 433.203 145.879 445.371 145.879H370.001C357.833 145.879 346.994 138.201 343.025 126.55L323.188 67.7745C323.178 67.7745 398.558 67.7745 398.558 67.7745Z" fill="#684EB9"/>
<path fill-rule="evenodd" clip-rule="evenodd" d="M401.727 77.3037H326.357L323.178 67.7745H398.558L401.727 77.3037Z" fill="#D7CAFF"/>
<path fill-rule="evenodd" clip-rule="evenodd" d="M388.769 61.1582C391.419 61.1582 393.268 63.2801 393.268 65.6624V72.0183C393.268 72.5488 392.738 73.0793 392.209 73.0793C391.679 73.0793 391.149 72.5488 391.149 72.0183V65.6624C391.149 64.071 389.829 63.01 388.499 63.01C386.91 63.01 385.85 64.3314 385.85 65.6624V67.7842H384V65.6624C384.27 63.2801 386.389 61.1582 388.769 61.1582Z" fill="#AA8FFF"/>
<path fill-rule="evenodd" clip-rule="evenodd" d="M374.491 61.1582C377.14 61.1582 378.99 63.2801 378.99 65.6624V72.0183C378.99 72.5488 378.46 73.0793 377.93 73.0793C377.4 73.0793 376.87 72.5488 376.87 72.0183V65.6624C376.87 64.071 375.551 63.01 374.221 63.01C372.631 63.01 371.571 64.3314 371.571 65.6624V67.7842H369.722V65.6624C369.991 63.2801 371.841 61.1582 374.491 61.1582Z" fill="#AA8FFF"/>
<path fill-rule="evenodd" clip-rule="evenodd" d="M359.943 61.1582C362.592 61.1582 364.442 63.2801 364.442 65.6624V72.0183C364.442 72.5488 363.912 73.0793 363.382 73.0793C362.852 73.0793 362.323 72.5488 362.323 72.0183V65.6624C362.323 64.071 361.003 63.01 359.673 63.01C358.083 63.01 357.024 64.3314 357.024 65.6624V67.7842H355.174V65.6624C355.444 63.2801 357.563 61.1582 359.943 61.1582Z" fill="#AA8FFF"/>
<path fill-rule="evenodd" clip-rule="evenodd" d="M345.665 61.1582C348.314 61.1582 350.164 63.2801 350.164 65.6624V72.0183C350.164 72.5488 349.634 73.0793 349.104 73.0793C348.574 73.0793 348.044 72.5488 348.044 72.0183V65.6624C348.044 64.071 346.724 63.01 345.395 63.01C343.805 63.01 342.745 64.3314 342.745 65.6624V67.7842H340.896V65.6624C340.896 63.2801 343.015 61.1582 345.665 61.1582Z" fill="#AA8FFF"/>
<path fill-rule="evenodd" clip-rule="evenodd" d="M331.117 61.1582C333.766 61.1582 335.616 63.2801 335.616 65.6624V72.0183C335.616 72.5488 335.086 73.0793 334.556 73.0793C334.026 73.0793 333.496 72.5488 333.496 72.0183V65.6624C333.496 64.071 332.176 63.01 330.847 63.01C329.517 63.01 328.197 64.3314 328.197 65.6624V67.7842H326.348V65.6624C326.617 63.2801 328.737 61.1582 331.117 61.1582Z" fill="#AA8FFF"/>
<path fill-rule="evenodd" clip-rule="evenodd" d="M386.119 92.668H397.758L393.528 79.9561H381.89L386.119 92.668Z" fill="white"/>
<path fill-rule="evenodd" clip-rule="evenodd" d="M392.208 110.935H403.846L399.607 98.2234H387.979L392.208 110.935Z" fill="white"/>
<path fill-rule="evenodd" clip-rule="evenodd" d="M398.557 129.994H410.456L405.957 117.282H394.318L398.557 129.994Z" fill="white"/>
<path fill-rule="evenodd" clip-rule="evenodd" d="M367.082 92.668H378.72L374.491 79.9561H362.853L367.082 92.668Z" fill="white"/>
<path fill-rule="evenodd" clip-rule="evenodd" d="M373.162 110.935H384.8L380.31 98.2234H368.672L373.162 110.935Z" fill="white"/>
<path fill-rule="evenodd" clip-rule="evenodd" d="M379.51 129.994H391.148L386.919 117.282H375.28L379.51 129.994Z" fill="#D7CAFF"/>
<path fill-rule="evenodd" clip-rule="evenodd" d="M348.044 92.668H359.673L355.183 79.9561H343.545L348.044 92.668Z" fill="white"/>
<path fill-rule="evenodd" clip-rule="evenodd" d="M354.123 110.935H365.762L361.262 98.2234H349.624L354.123 110.935Z" fill="#D7CAFF"/>
<path fill-rule="evenodd" clip-rule="evenodd" d="M360.473 129.994H372.111L367.872 117.282H356.243L360.473 129.994Z" fill="white"/>
<path d="M390.013 260.452C403.851 246.599 403.851 224.139 390.013 210.285C376.175 196.432 353.738 196.432 339.9 210.285C326.062 224.139 326.062 246.599 339.9 260.452C353.738 274.306 376.175 274.306 390.013 260.452Z" fill="#B9D9E4"/>
<path fill-rule="evenodd" clip-rule="evenodd" d="M394.588 216.306C388.239 206.507 377.4 199.89 364.702 199.89V235.364L394.588 216.306Z" fill="#E5DDFF"/>
<path fill-rule="evenodd" clip-rule="evenodd" d="M400.137 234.043C399.877 227.426 398.018 221.331 394.588 216.306L364.972 235.364L400.137 234.043Z" fill="#6850BE"/>
<path fill-rule="evenodd" clip-rule="evenodd" d="M405.956 284.881H44.954C42.3045 284.881 39.9248 282.759 39.9248 279.846V275.612C39.9248 272.96 42.0444 270.577 44.954 270.577H406.217C408.866 270.577 411.246 272.699 411.246 275.612V279.846C410.986 282.489 408.866 284.881 405.956 284.881Z" fill="#6850BE"/>
<path fill-rule="evenodd" clip-rule="evenodd" d="M177.196 192.743C205.762 227.426 184.605 270.577 184.605 270.577H215.021C234.589 245.424 226.39 203.063 226.39 203.063L177.196 192.743Z" fill="#314158"/>
<path fill-rule="evenodd" clip-rule="evenodd" d="M164.498 192.743C193.064 227.426 171.907 270.577 171.907 270.577H200.473C220.041 245.424 213.431 203.063 213.431 203.063L164.498 192.743Z" fill="#D7C6FB"/>
<path fill-rule="evenodd" clip-rule="evenodd" d="M125.884 142.966C111.605 147.731 106.046 169.702 113.455 192.213C121.124 214.454 139.112 228.487 153.39 223.453C205.753 206.777 281.923 231.921 281.923 231.921L222.421 57.4449C222.421 57.4546 177.727 123.908 125.884 142.966Z" fill="#836BDB"/>
<path fill-rule="evenodd" clip-rule="evenodd" d="M346.984 112.787C365.761 167.859 352.273 222.131 317.098 234.313C281.923 246.494 238.018 211.541 219.241 156.479C200.463 101.406 213.952 47.1345 249.127 34.9531C284.302 23.032 328.206 57.985 346.984 112.787Z" fill="#221E54"/>
<path fill-rule="evenodd" clip-rule="evenodd" d="M336.936 117.021C353.334 165.207 343.285 212.602 314.459 222.392C285.632 232.181 248.867 200.951 232.47 152.765C216.072 104.579 226.12 57.1844 254.947 47.3948C283.773 37.3256 320.268 68.575 336.936 117.021Z" fill="#D7C6FB"/>
<path fill-rule="evenodd" clip-rule="evenodd" d="M232.469 152.495C236.438 164.407 241.988 175.267 248.077 184.796L291.451 154.617L277.963 114.899L225.6 121.255C226.65 131.315 228.769 141.905 232.469 152.495Z" fill="#221E54"/>
<path fill-rule="evenodd" clip-rule="evenodd" d="M296.471 130.785C300.17 141.905 298.06 152.495 291.441 154.877C284.832 156.999 276.633 150.113 272.664 138.992C268.964 127.872 271.074 117.282 277.693 114.899C284.572 112.517 292.771 119.674 296.471 130.785Z" fill="#CCEBFF"/>
<path d="M110.546 270.847C140.051 270.847 163.969 246.903 163.969 217.367C163.969 187.83 140.051 163.886 110.546 163.886C81.0413 163.886 57.123 187.83 57.123 217.367C57.123 246.903 81.0413 270.847 110.546 270.847Z" fill="#221E54"/>
<path fill-rule="evenodd" clip-rule="evenodd" d="M157.359 217.367C157.359 243.311 136.462 264.231 110.545 264.231C84.6285 264.231 63.7314 243.311 63.7314 217.367C63.7314 191.422 84.6285 170.502 110.545 170.502C136.462 170.502 157.359 191.682 157.359 217.367Z" fill="#E5DDFF"/>
<path fill-rule="evenodd" clip-rule="evenodd" d="M154.45 217.367C154.45 241.72 134.882 261.318 110.546 261.318C86.2091 261.318 66.6416 241.73 66.6416 217.367C66.6416 193.004 86.2188 173.415 110.546 173.415C134.873 173.415 154.45 193.004 154.45 217.367Z" fill="white"/>
<path fill-rule="evenodd" clip-rule="evenodd" d="M113.455 179.771C113.455 181.362 112.135 182.684 110.545 182.684C108.956 182.684 107.636 181.362 107.636 179.771C107.636 178.18 108.956 176.858 110.545 176.858C112.135 176.858 113.455 178.18 113.455 179.771Z" fill="#4861B5"/>
<path fill-rule="evenodd" clip-rule="evenodd" d="M139.372 193.004C138.312 194.065 136.462 194.065 135.142 193.004C134.083 191.943 134.083 190.091 135.142 188.77C136.202 187.709 138.052 187.709 139.372 188.77C140.432 189.831 140.432 191.682 139.372 193.004Z" fill="#4861B5"/>
<path fill-rule="evenodd" clip-rule="evenodd" d="M148.101 220.54C146.511 220.54 145.191 219.218 145.191 217.627C145.191 216.036 146.511 214.714 148.101 214.714C149.691 214.714 151.011 216.036 151.011 217.627C151.011 219.218 149.691 220.54 148.101 220.54Z" fill="#4861B5"/>
<path fill-rule="evenodd" clip-rule="evenodd" d="M134.882 246.224C133.822 245.163 133.822 243.311 134.882 241.99C135.942 240.929 137.791 240.929 139.111 241.99C140.171 243.051 140.171 244.903 139.111 246.224C137.791 247.285 136.202 247.285 134.882 246.224Z" fill="#4861B5"/>
<path fill-rule="evenodd" clip-rule="evenodd" d="M107.376 255.223C107.376 253.631 108.696 252.31 110.286 252.31C111.875 252.31 113.195 253.631 113.195 255.223C113.195 256.814 111.875 258.136 110.286 258.136C108.696 258.136 107.376 256.814 107.376 255.223Z" fill="#4861B5"/>
<path fill-rule="evenodd" clip-rule="evenodd" d="M81.7196 241.99C82.7794 240.929 84.6292 240.929 85.9492 241.99C87.0089 243.051 87.0089 244.903 85.9492 246.224C84.8894 247.285 83.0396 247.285 81.7196 246.224C80.6599 244.903 80.6599 243.041 81.7196 241.99Z" fill="#4861B5"/>
<path fill-rule="evenodd" clip-rule="evenodd" d="M72.7299 214.454C74.3196 214.454 75.6395 215.775 75.6395 217.367C75.6395 218.958 74.3196 220.279 72.7299 220.279C71.1402 220.279 69.8203 218.958 69.8203 217.367C69.8203 215.515 71.1402 214.454 72.7299 214.454Z" fill="#4861B5"/>
<path fill-rule="evenodd" clip-rule="evenodd" d="M85.9492 188.509C87.0089 189.57 87.0089 191.422 85.9492 192.743C84.8894 193.804 83.0396 193.804 81.7196 192.743C80.6599 191.682 80.6599 189.831 81.7196 188.509C83.0396 187.448 84.899 187.448 85.9492 188.509Z" fill="#4861B5"/>
<path fill-rule="evenodd" clip-rule="evenodd" d="M130.913 221.331L110.286 219.209C109.756 219.209 108.966 218.678 108.696 218.148L95.7378 190.081C95.2079 189.02 95.7378 187.959 96.5278 187.699C97.5876 187.169 98.6474 187.699 98.9075 188.49L111.336 215.756L130.643 217.878C131.703 217.878 132.493 218.939 132.233 220C132.763 220.54 131.973 221.331 130.913 221.331Z" fill="#4861B5"/>
<path fill-rule="evenodd" clip-rule="evenodd" d="M115.575 217.367C115.575 220.019 113.455 222.401 110.546 222.401C107.896 222.401 105.517 220.279 105.517 217.367C105.517 214.714 107.636 212.332 110.546 212.332C113.455 212.602 115.575 214.714 115.575 217.367Z" fill="#1E306E"/>
<path fill-rule="evenodd" clip-rule="evenodd" d="M151.01 114.109H149.951C148.891 114.109 147.831 113.048 147.831 111.987V91.0766C147.831 90.0156 148.891 88.9547 149.951 88.9547H151.01C152.07 88.9547 153.13 90.0156 153.13 91.0766V111.996C153.13 113.048 152.07 114.109 151.01 114.109Z" fill="#6A82D4"/>
<path fill-rule="evenodd" clip-rule="evenodd" d="M137.522 114.639C137.522 114.639 131.442 116.761 130.113 119.143C128.793 121.525 140.952 148.271 140.952 148.271L149.68 113.327L137.522 114.639Z" fill="#16224F"/>
<path fill-rule="evenodd" clip-rule="evenodd" d="M145.191 151.444C146.251 154.617 146.251 158.06 145.721 158.861H127.474C128.004 157.269 133.553 154.627 136.202 153.566C138.582 152.505 139.372 150.123 139.372 150.123L145.191 151.444Z" fill="#A389FF"/>
<path fill-rule="evenodd" clip-rule="evenodd" d="M173.487 122.056C173.487 122.847 172.168 125.499 166.878 125.499C161.589 125.499 151.8 125.76 151.8 125.76L146.511 151.174C141.222 152.235 138.572 150.913 138.572 150.913C138.572 150.913 139.632 123.117 140.162 119.143C140.422 115.169 143.601 113.848 143.601 113.848H167.408C167.408 113.848 173.757 117.552 173.487 122.056Z" fill="#1E306E"/>
<path fill-rule="evenodd" clip-rule="evenodd" d="M142.021 93.1985L139.901 97.7026L147.31 98.2331C147.31 98.2331 147.84 95.3204 147.84 95.0599L142.021 93.1985Z" fill="#FF8762"/>
<path fill-rule="evenodd" clip-rule="evenodd" d="M165.288 79.1652C171.637 81.5474 176.657 87.1125 180.096 94.7899C179.567 95.3203 179.567 95.3203 179.567 95.3203C179.567 95.3203 174.807 108.563 174.807 109.614C175.067 111.736 173.487 122.586 173.487 122.326C169.788 117.031 163.438 113.858 161.849 113.858C160.259 113.858 148.1 103.798 148.1 103.798L147.571 96.6513C143.071 95.8604 141.491 93.4782 141.491 93.4782C141.491 93.2178 147.571 84.2094 149.43 83.4186C151.28 82.6277 153.399 81.8272 153.399 81.8272L165.288 79.1652Z" fill="white"/>
<path fill-rule="evenodd" clip-rule="evenodd" d="M179.577 95.3107C175.347 97.693 170.588 98.4838 170.588 98.4838V103.779C165.038 105.631 158.159 108.283 156.04 108.283C153.92 108.283 157.36 113.048 157.36 113.048C157.36 113.048 174.547 113.308 177.987 111.987C180.107 111.987 180.367 110.395 180.107 109.604C180.636 105.11 179.577 95.3107 179.577 95.3107Z" fill="#FF8762"/>
<path fill-rule="evenodd" clip-rule="evenodd" d="M134.612 96.1016H157.619L161.589 113.318H138.582L134.612 96.1016Z" fill="#6A82D4"/>
<path fill-rule="evenodd" clip-rule="evenodd" d="M162.388 69.1056C163.178 64.341 160.008 63.2801 158.419 63.5501C155.509 62.7592 153.129 64.0806 152.339 64.0806C151.549 64.0806 152.339 65.672 152.339 65.9324C151.81 67.7842 152.339 69.9061 152.6 71.2274C152.86 72.5488 152.339 74.9311 152.07 75.992C151.81 77.053 152.07 78.9048 155.239 79.4352C160.269 80.4962 160.789 80.2261 160.789 80.2261L161.319 74.9311V72.2787L162.388 69.1056Z" fill="#2B1710"/>
<path fill-rule="evenodd" clip-rule="evenodd" d="M159.739 78.1042C158.419 79.4255 156.299 79.6956 155.509 79.1651C155.509 79.1651 154.979 80.2261 153.39 81.287C155.509 84.7302 161.849 83.9393 165.558 78.9047C161.858 77.0529 161.328 71.4878 161.328 71.4878C161.328 71.4878 161.589 76.2524 159.739 78.1042Z" fill="#FF8762"/>
<path fill-rule="evenodd" clip-rule="evenodd" d="M159.999 67.2441C160.259 70.1569 160.529 73.0696 159.209 73.6001C157.62 74.1306 155.51 73.0696 153.39 73.6001C153.39 71.4782 153.13 68.8355 153.13 68.8355C153.66 67.2441 154.45 66.7136 154.45 66.7136C155.77 66.7136 156.83 65.6527 156.83 65.6527C157.09 66.4436 157.889 66.4436 158.679 66.4436C159.209 66.1928 159.999 67.2441 159.999 67.2441Z" fill="#FF8762"/>
<path fill-rule="evenodd" clip-rule="evenodd" d="M157.619 74.1305C156.299 73.8701 153.65 74.1305 153.39 74.1305C153.39 75.1914 153.92 76.7829 155.509 76.5128C157.099 76.2427 157.619 74.1305 157.619 74.1305Z" fill="#FF8762"/>
<path fill-rule="evenodd" clip-rule="evenodd" d="M133.553 96.1016H156.569L160.529 113.318H137.522L133.553 96.1016Z" fill="#4861B5"/>
<path fill-rule="evenodd" clip-rule="evenodd" d="M147.31 105.901H149.16V105.64C149.16 104.319 148.1 103.258 146.78 103.258H144.931V103.518C144.931 104.84 145.99 105.901 147.31 105.901Z" fill="#6A82D4"/>
<path d="M169.518 113.318H137.522V114.909H169.518V113.318Z" fill="#4861B5"/>
<path fill-rule="evenodd" clip-rule="evenodd" d="M136.202 153.556C136.731 153.296 137.261 153.026 137.791 152.495C138.851 153.026 139.111 154.087 139.111 154.347C140.701 156.729 144.401 154.877 145.99 153.816C146.25 156.199 146.25 158.051 145.73 158.581H127.482C128.263 157.53 133.822 154.617 136.202 153.556Z" fill="#2B1710"/>
<path fill-rule="evenodd" clip-rule="evenodd" d="M161.059 71.7483C161.059 72.5391 161.849 72.8092 162.648 72.8092C163.438 72.8092 163.708 72.0183 163.708 71.2178C163.708 70.4269 162.918 70.1569 162.119 70.1569C161.319 70.1569 160.799 70.9574 161.059 71.7483Z" fill="#C2AEFF"/>
<path fill-rule="evenodd" clip-rule="evenodd" d="M155.51 79.4256C156.57 79.686 158.679 79.4256 159.739 78.3646C160.529 77.5738 161.059 75.9824 161.059 74.661C161.059 79.6956 156.83 83.1292 155.51 79.4256Z" fill="#CD7E6D"/>
<path fill-rule="evenodd" clip-rule="evenodd" d="M180.106 109.344C180.366 110.405 180.106 111.726 177.986 111.726C176.666 109.604 178.776 108.553 180.106 109.344Z" fill="#CD7E6D"/>
<path fill-rule="evenodd" clip-rule="evenodd" d="M222.951 162.564C220.041 163.095 218.191 160.443 219.251 158.06C218.991 153.556 220.841 149.322 227.45 151.704C230.62 152.235 231.949 156.469 229.3 157.53C225.59 160.973 222.951 162.564 222.951 162.564Z" fill="#2B1710"/>
<path fill-rule="evenodd" clip-rule="evenodd" d="M225.591 164.416C225.331 165.738 225.851 166.538 227.44 167.859C227.44 173.415 218.981 169.451 218.981 168.65C218.981 168.65 220.301 166.799 220.831 165.738C221.361 164.677 221.621 162.294 221.361 159.121C222.681 159.382 222.951 158.33 223.211 156.739C223.211 154.887 224.001 152.235 227.44 152.765C228.76 154.357 229.29 155.418 229.29 157.269C229.29 159.391 229.29 160.713 229.29 161.774C229.03 162.564 227.97 164.416 225.591 164.416Z" fill="#FF8762"/>
<path fill-rule="evenodd" clip-rule="evenodd" d="M221.891 159.912C221.891 160.703 221.361 161.233 220.571 161.233C219.781 161.233 219.251 160.703 219.251 159.912C219.251 159.121 219.781 158.591 220.571 158.591C221.361 158.591 221.891 159.121 221.891 159.912Z" fill="#C2AEFF"/>
<path fill-rule="evenodd" clip-rule="evenodd" d="M225.33 164.416C222.95 163.886 222.16 161.764 221.891 161.243C222.681 165.207 224.8 167.859 225.33 164.416Z" fill="#CD7E6D"/>
<path fill-rule="evenodd" clip-rule="evenodd" d="M211.043 265.813C211.573 265.022 211.833 263.161 211.833 260.778C211.833 259.987 211.573 258.656 211.303 257.335C211.303 256.805 211.043 256.014 211.043 255.213L215.272 256.274C215.272 257.065 215.012 257.865 215.012 258.396C214.752 259.717 215.012 261.309 215.272 262.63C215.272 263.161 215.532 263.421 215.532 263.691C215.792 264.482 218.442 266.864 219.502 268.986C219.502 269.246 222.151 269.777 221.881 270.307C221.621 270.307 217.122 270.838 216.592 270.307C216.062 269.777 215.002 268.716 213.682 268.456V270.577H211.833C211.833 270.577 211.573 268.726 211.573 268.195C211.312 267.665 210.783 266.604 211.043 265.813Z" fill="#FF8762"/>
<path fill-rule="evenodd" clip-rule="evenodd" d="M231.939 265.813C232.469 265.022 232.729 263.161 232.729 260.778C232.729 259.987 232.469 258.656 232.199 257.335C232.199 256.805 231.939 256.014 231.939 255.213L236.169 256.274C236.169 257.065 235.909 257.865 235.909 258.396C235.648 259.717 235.909 261.309 236.169 262.63C236.169 263.161 236.429 263.421 236.429 263.691C236.689 264.482 239.338 266.864 240.398 268.986C240.398 269.246 243.048 269.777 242.778 270.307C242.518 270.307 238.019 270.838 237.489 270.307C236.959 269.777 235.899 268.716 234.579 268.456V270.577H232.729C232.729 270.577 232.469 268.726 232.469 268.195C231.939 267.665 231.409 266.604 231.939 265.813Z" fill="#FF8762"/>
<path fill-rule="evenodd" clip-rule="evenodd" d="M241.458 268.996C240.668 268.996 239.608 269.256 239.078 269.256C238.548 268.996 235.639 265.282 231.939 264.491C231.939 264.752 231.679 265.282 231.679 265.552C231.149 266.343 231.939 267.404 231.939 267.935C231.939 268.465 232.199 270.317 232.199 270.317H234.319V268.195C235.909 268.455 237.228 269.786 237.489 270.047C238.018 270.577 243.038 270.047 243.308 270.047C244.368 269.516 241.728 269.256 241.458 268.996Z" fill="#2B1710"/>
<path fill-rule="evenodd" clip-rule="evenodd" d="M220.571 268.996C219.781 268.996 218.721 269.256 218.192 269.256C217.662 268.996 214.752 265.282 211.052 264.491C211.052 264.752 210.792 265.282 210.792 265.552C210.262 266.343 211.052 267.404 211.052 267.935C211.052 268.465 211.313 270.317 211.313 270.317H213.432V268.195C215.022 268.455 216.342 269.786 216.602 270.047C217.132 270.577 222.151 270.047 222.421 270.047C223.481 269.516 220.831 269.256 220.571 268.996Z" fill="#2B1710"/>
<path fill-rule="evenodd" clip-rule="evenodd" d="M217.391 168.65C211.042 171.033 207.603 186.657 208.402 189.831C209.202 193.004 216.861 192.743 221.101 190.091C225.33 187.448 217.391 168.65 217.391 168.65Z" fill="#E5DDFF"/>
<path fill-rule="evenodd" clip-rule="evenodd" d="M227.181 167.329C229.3 167.859 230.35 169.181 230.35 169.181C230.35 169.181 237.229 175.006 235.379 178.18C233.53 181.353 233.26 188.239 233.26 188.239L219.242 188.5C219.242 187.969 215.542 180.822 214.742 177.119C214.213 173.415 215.802 168.65 219.242 167.85C222.951 167.059 227.181 167.329 227.181 167.329Z" fill="#809CCA"/>
<path d="M233.789 188.509H219.511V190.891H233.789V188.509Z" fill="#2B1710"/>
<path fill-rule="evenodd" clip-rule="evenodd" d="M230.35 169.181C234.319 170.772 238.549 179.24 240.668 179.24C242.788 179.24 247.547 174.476 247.547 174.476L249.667 176.598C249.667 179.771 246.497 190.891 240.408 191.692C234.329 192.483 228.51 183.484 227.45 178.189C226.12 171.033 230.35 169.181 230.35 169.181Z" fill="#E5DDFF"/>
<path d="M232.209 188.239H231.149V191.152H232.209V188.239Z" fill="#1E306E"/>
<path d="M224.8 188.239H223.74V191.152H224.8V188.239Z" fill="#1E306E"/>
<path d="M220.831 188.239H219.771V191.152H220.831V188.239Z" fill="#1E306E"/>
<path fill-rule="evenodd" clip-rule="evenodd" d="M247.547 174.476C247.547 173.945 247.547 170.772 247.547 170.502C247.547 170.232 249.666 167.329 249.666 167.059C249.927 166.799 251.786 165.468 251.786 165.468C252.316 165.728 252.046 166.528 251.786 167.059C251.256 167.589 250.726 168.38 250.726 168.38C250.726 168.38 250.466 169.171 250.726 169.171C250.986 169.171 252.046 170.493 252.316 171.023C252.576 171.553 252.576 172.344 252.316 173.145C252.056 173.936 249.666 176.848 249.666 176.848L247.547 174.476Z" fill="#FF8762"/>
<path fill-rule="evenodd" clip-rule="evenodd" d="M237.489 205.446C237.489 205.446 237.489 200.681 233.52 190.882H219.241C215.542 196.437 213.692 203.063 212.892 209.68L207.343 263.691H218.711C218.711 263.691 223.211 246.215 224.531 224.774C224.531 224.774 229.82 251.78 228.76 263.691H238.809C239.869 258.666 241.728 222.131 237.489 205.446Z" fill="#1E306E"/>
<path fill-rule="evenodd" clip-rule="evenodd" d="M220.571 155.678C220.571 157.8 218.721 159.652 216.601 159.652C214.482 159.652 212.632 157.8 212.632 155.678C212.632 153.556 214.482 151.704 216.601 151.704C218.711 151.704 220.571 153.556 220.571 155.678Z" fill="#2B1710"/>
<path fill-rule="evenodd" clip-rule="evenodd" d="M326.887 262.37C326.887 262.37 326.097 266.343 326.357 267.404C326.357 267.665 326.357 267.935 326.617 268.195C326.878 268.456 326.878 270.577 326.878 271.899C326.878 272.429 327.138 272.159 327.407 272.429C327.668 272.69 327.937 270.047 327.937 270.047C327.937 270.047 328.197 269.256 329.787 275.602C329.787 275.602 329.257 278.255 333.757 279.837C333.757 279.837 335.876 281.158 337.726 279.837C337.726 279.837 338.516 279.046 337.986 277.184C337.986 277.184 335.606 274.011 335.606 270.037C335.606 270.037 335.346 267.915 333.757 265.273C333.757 265.273 333.227 263.421 332.697 263.151C328.737 264.221 327.677 261.839 326.887 262.37Z" fill="#1A1840"/>
<path fill-rule="evenodd" clip-rule="evenodd" d="M349.094 263.17C349.094 263.17 348.304 267.144 349.094 268.205C349.354 268.735 349.354 271.118 349.624 272.178C349.624 272.709 350.154 272.439 350.414 272.709C350.674 272.969 351.204 269.796 351.204 269.796C351.204 269.796 351.994 268.735 355.434 274.03C355.434 274.03 355.964 276.683 360.723 276.413C360.723 276.413 363.103 276.943 364.423 274.821C364.423 274.821 364.953 273.76 363.633 272.439C363.633 272.439 360.193 270.317 358.873 266.613C358.873 266.613 357.813 264.762 355.434 262.91C355.434 262.91 353.844 262.119 353.314 262.649C352.274 263.17 349.094 263.17 349.094 263.17Z" fill="#1A1840"/>
<path fill-rule="evenodd" clip-rule="evenodd" d="M355.973 263.17C355.973 263.17 348.034 264.762 348.564 262.91C351.734 251.529 346.714 244.642 348.824 234.843C349.884 230.079 345.124 222.131 344.595 221.34L338.775 194.335L357.813 193.544C359.403 200.43 359.403 216.315 358.343 233.522C357.823 242.25 355.443 252.05 355.973 263.17Z" fill="#B09BF2"/>
<path fill-rule="evenodd" clip-rule="evenodd" d="M351.474 263.701C349.884 263.701 348.564 263.701 348.824 262.91C351.994 251.529 346.974 244.642 349.084 234.843C350.144 230.079 345.385 222.131 344.855 221.34L340.355 200.951L353.584 198.038C351.204 203.333 348.824 214.984 351.734 229.278C351.994 231.13 351.994 232.982 351.734 234.834C351.474 236.685 351.204 239.338 351.474 243.302C351.474 243.572 352.273 254.432 351.474 263.701Z" fill="#8E6AFF"/>
<path fill-rule="evenodd" clip-rule="evenodd" d="M332.437 193.004C326.087 204.655 336.406 212.332 334.556 232.721C334.556 233.782 334.556 235.104 333.766 235.894C330.327 239.068 327.947 252.57 326.627 263.691C329.537 264.752 330.066 264.752 333.236 263.951C334.826 252.831 340.905 244.893 343.285 236.415C345.135 230.329 345.934 223.443 347.254 217.087C348.314 212.052 348.314 208.349 351.484 204.115C353.603 201.202 355.453 196.698 356.243 191.933L332.437 193.004Z" fill="#B09BF2"/>
<path fill-rule="evenodd" clip-rule="evenodd" d="M332.437 193.004C326.087 204.655 336.406 212.332 334.556 232.721C334.556 233.782 334.556 235.104 333.766 235.894C330.327 239.068 327.947 252.57 326.627 263.691C327.417 263.951 328.217 264.221 328.747 264.221C329.007 254.422 336.416 236.425 336.416 236.425C339.065 226.095 336.416 208.889 336.416 208.889C335.356 204.655 336.155 198.299 337.206 192.473L332.437 193.004Z" fill="#8E6AFF"/>
<path fill-rule="evenodd" clip-rule="evenodd" d="M368.932 154.357C368.142 152.505 366.812 150.913 367.612 149.062C366.552 148.271 367.352 146.679 368.142 145.888C368.402 145.358 370.791 144.567 372.641 146.679C373.701 147.74 375.021 149.332 372.641 154.096C372.111 160.713 375.29 165.747 372.111 172.634C367.082 173.955 357.833 167.869 355.713 167.599C348.044 165.477 348.834 160.983 351.744 158.07C352.534 157.279 362.852 164.156 368.671 167.339C367.612 164.146 368.932 160.703 368.932 154.357Z" fill="#FDDDB6"/>
<path fill-rule="evenodd" clip-rule="evenodd" d="M346.715 155.678C350.944 153.296 356.503 156.469 358.613 158.591C363.903 164.146 364.433 163.625 366.812 166.268L361.523 172.354L348.825 162.555L346.715 155.678Z" fill="#D7CAFF"/>
<path fill-rule="evenodd" clip-rule="evenodd" d="M349.364 154.617C353.064 154.087 357.033 156.469 358.883 158.321C364.172 163.876 364.702 163.355 367.082 165.998L363.382 170.232L351.484 160.963L349.364 154.617Z" fill="#C2B1FF"/>
<path fill-rule="evenodd" clip-rule="evenodd" d="M349.624 151.704C351.474 155.408 364.172 165.738 357.563 172.354C354.653 175.006 355.443 180.822 355.973 186.387C355.973 186.387 359.672 191.943 357.033 194.595C353.593 196.447 346.454 195.386 342.754 195.916C342.754 195.916 335.085 197.768 332.706 194.325C330.586 191.152 332.446 190.621 332.706 186.378C333.765 175.527 329.796 163.346 330.056 157.25C331.376 155.128 336.935 150.634 338.255 151.164L349.624 151.704Z" fill="#D7CAFF"/>
<path fill-rule="evenodd" clip-rule="evenodd" d="M349.624 151.704C351.474 155.408 364.172 165.738 357.563 172.354C354.653 175.006 355.443 180.822 355.973 186.387C355.973 186.387 358.093 189.561 358.093 192.213C354.653 192.743 350.154 192.213 347.514 192.473C347.514 192.473 339.845 194.325 337.465 190.882C335.346 187.709 337.205 187.178 337.465 182.934C338.255 175.257 333.236 165.988 330.326 159.102C330.326 158.311 330.326 157.781 330.326 157.25C331.646 155.128 337.205 150.634 338.525 151.164L349.624 151.704Z" fill="#9810FA"/>
<path fill-rule="evenodd" clip-rule="evenodd" d="M345.134 195.916C346.454 196.447 348.044 196.447 350.684 195.386C351.214 195.126 353.593 191.943 352.273 192.213C351.744 192.473 349.624 193.004 349.104 192.743C348.574 192.743 347.514 192.483 347.254 191.952C347.254 191.692 347.784 190.361 348.314 190.361C348.574 190.361 349.374 190.361 349.634 190.621C349.894 190.621 350.693 190.361 350.424 190.361C349.894 190.101 349.364 189.831 349.104 189.3C348.844 189.04 344.874 189.04 344.344 188.77C340.905 187.448 337.205 182.153 333.236 181.092C333.496 178.97 333.496 176.858 333.766 173.945L326.887 173.155C327.147 175.276 327.677 178.45 327.677 181.623C331.376 187.709 337.725 186.918 342.225 191.422C343.015 193.004 344.604 194.856 345.134 195.916Z" fill="#FDDDB6"/>
<path fill-rule="evenodd" clip-rule="evenodd" d="M333.756 175.797C334.017 171.033 337.196 167.059 337.456 164.416C335.866 142.976 326.617 159.652 326.877 173.945C330.057 174.476 331.907 174.736 333.756 175.797Z" fill="#C2B1FF"/>
<path fill-rule="evenodd" clip-rule="evenodd" d="M352.004 151.174C352.004 151.174 349.884 153.026 350.944 155.408C350.944 155.408 349.624 158.321 345.655 157.53C343.535 156.999 338.246 152.765 339.045 149.852C339.045 149.852 340.105 149.852 340.365 149.322C340.365 149.322 341.685 146.149 341.425 142.706L352.004 151.174Z" fill="#FCBE72"/>
<path fill-rule="evenodd" clip-rule="evenodd" d="M354.654 141.375C354.654 141.375 355.184 145.348 354.914 147.731C355.174 149.322 352.534 153.026 351.214 153.286C350.424 153.547 348.305 153.547 343.805 150.634C343.805 150.634 341.955 149.042 341.156 147.461C341.156 147.461 336.127 140.314 337.456 137.401C337.456 137.401 339.306 130.785 345.395 130.515C345.395 130.515 352.274 129.193 353.594 132.636C355.974 135.819 354.914 138.732 354.654 141.375Z" fill="#FDDDB6"/>
<path fill-rule="evenodd" clip-rule="evenodd" d="M345.134 155.938C345.134 155.938 341.165 148.792 340.905 143.757C343.554 144.548 351.484 140.314 351.744 136.61C351.744 136.61 354.913 139.523 354.653 153.556C354.653 153.556 358.883 153.817 359.413 149.582C359.153 142.436 354.913 128.142 346.185 128.663C338.776 129.193 335.866 133.167 335.076 138.992C334.286 146.94 336.666 158.591 345.134 155.938Z" fill="#221E54"/>
<path fill-rule="evenodd" clip-rule="evenodd" d="M394.848 117.282C394.588 117.021 394.318 117.282 394.058 117.542L385.599 129.724C385.339 129.984 385.599 130.254 385.859 130.514C386.119 130.775 386.389 130.514 386.649 130.254L395.108 118.073C395.118 118.082 395.118 117.552 394.848 117.282Z" fill="#1A1840"/>
<path fill-rule="evenodd" clip-rule="evenodd" d="M403.047 127.611C402.787 127.351 402.517 127.081 402.257 127.351L388.769 133.707C388.508 133.967 388.239 134.237 388.508 134.498C388.769 134.758 389.038 135.028 389.298 134.758L402.787 128.402C403.047 128.402 403.317 127.881 403.047 127.611Z" fill="#1A1840"/>
<path fill-rule="evenodd" clip-rule="evenodd" d="M405.167 140.584C405.167 140.323 404.907 140.053 404.637 140.053L389.829 138.992C389.569 138.992 389.299 139.253 389.299 139.523C389.299 139.783 389.559 140.053 389.829 140.053L404.637 141.114C404.897 141.114 405.167 141.114 405.167 140.584Z" fill="#1A1840"/>
<path fill-rule="evenodd" clip-rule="evenodd" d="M364.442 148.531C364.972 149.322 365.762 149.852 366.562 150.383C367.092 150.383 367.622 150.383 368.152 150.123C369.741 151.444 371.321 153.035 372.911 154.357C373.701 153.566 374.501 152.765 374.501 151.704C373.711 150.383 371.061 149.582 370.001 148.261C370.001 147.47 370.001 146.67 370.001 145.879C369.472 145.618 368.682 145.618 367.882 145.879C368.142 146.67 366.552 147.47 364.442 148.531Z" fill="#D7C6FB"/>
<path fill-rule="evenodd" clip-rule="evenodd" d="M363.643 148.791C364.172 149.582 364.962 150.113 365.762 150.643C366.292 150.643 366.822 150.643 367.352 150.383C368.942 151.704 370.522 153.296 372.111 154.617C372.901 153.826 373.701 153.026 373.701 151.965C372.911 150.643 370.261 149.843 369.202 148.521C369.202 147.731 369.202 146.93 369.202 146.139C368.672 145.879 367.882 145.879 367.082 146.139C367.352 146.94 365.762 148.001 363.643 148.791Z" fill="#E8DFFD"/>
<path fill-rule="evenodd" clip-rule="evenodd" d="M374.751 151.704L373.961 151.965C373.961 153.026 372.901 154.087 372.371 154.617L373.161 154.357C373.431 154.087 374.491 153.026 374.751 151.704Z" fill="#C7AEF9"/>
<path fill-rule="evenodd" clip-rule="evenodd" d="M359.673 143.236L366.022 140.323L368.932 146.679L362.583 149.592C360.993 150.383 359.413 149.592 358.613 148.001L358.084 147.21C357.563 145.879 358.353 144.027 359.673 143.236Z" fill="#B09BF2"/>
<path fill-rule="evenodd" clip-rule="evenodd" d="M367.612 143.767L368.932 146.679L362.582 149.592C361.263 150.123 359.673 149.853 358.883 148.531L367.612 143.767Z" fill="#8E6AFF"/>
<path fill-rule="evenodd" clip-rule="evenodd" d="M367.351 147.47C374.23 145.088 378.46 146.149 384.009 147.47L375.28 128.412C372.371 133.446 370.521 137.411 364.172 141.124C364.172 142.185 364.432 143.506 364.962 144.567C366.022 145.879 366.552 146.67 367.351 147.47Z" fill="#F2EDFF"/>
<path fill-rule="evenodd" clip-rule="evenodd" d="M367.352 147.47C374.231 145.088 378.461 146.149 384.01 147.47L379.251 137.411L365.232 145.088C366.022 146.149 366.822 146.94 367.352 147.47Z" fill="#E8DFFD"/>
<path fill-rule="evenodd" clip-rule="evenodd" d="M376.341 127.351C378.72 126.29 382.69 129.733 385.07 135.298C387.719 140.854 387.719 146.149 385.33 147.21C382.95 148.271 378.981 144.827 376.601 139.262C374.221 133.967 373.961 128.402 376.341 127.351Z" fill="#221E54"/>
<path fill-rule="evenodd" clip-rule="evenodd" d="M376.341 127.611C378.721 126.55 382.42 129.994 385.07 135.559C387.449 140.854 387.719 146.149 385.33 147.21C382.95 148.271 379.25 144.828 376.601 139.262C374.221 133.967 374.221 128.672 376.341 127.611Z" fill="#332A7C"/>
<path fill-rule="evenodd" clip-rule="evenodd" d="M376.871 128.672C378.46 127.881 381.63 131.325 384.01 136.089C386.389 140.854 386.659 145.358 385.07 146.149C383.48 146.94 380.31 143.497 377.93 138.732C375.541 133.967 375.281 129.463 376.871 128.672Z" fill="#D7C6FB"/>
<path fill-rule="evenodd" clip-rule="evenodd" d="M378.72 135.028C379.25 134.768 380.31 135.819 380.84 137.411C381.63 139.002 381.9 140.323 381.1 140.584C381.1 140.584 381.1 140.584 380.84 140.584L378.99 141.114C378.46 140.323 378.2 139.523 377.67 138.732C377.14 137.941 376.88 136.88 376.61 136.08L378.72 135.028Z" fill="#2B2468"/>
<path fill-rule="evenodd" clip-rule="evenodd" d="M378.72 135.028C379.25 134.768 380.04 135.819 380.84 137.411C381.63 139.002 381.63 140.323 381.37 140.584C380.84 140.844 380.05 139.793 379.25 138.202C378.45 136.61 378.19 135.289 378.72 135.028Z" fill="#1A1840"/>
</svg>
